<?xml version="1.0" encoding="UTF-8" standalone="no"?>
<!DOCTYPE svg PUBLIC "-//W3C//DTD SVG 1.1//EN"
 "http://www.w3.org/Graphics/SVG/1.1/DTD/svg11.dtd">
<!-- Generated by graphviz version 2.42.3 (20191010.1750)
 -->
<!-- Title: snakemake_dag Pages: 1 -->
<svg width="3533pt" height="481pt"
 viewBox="0.00 0.00 3533.00 481.00" xmlns="http://www.w3.org/2000/svg" xmlns:xlink="http://www.w3.org/1999/xlink">
<g id="graph0" class="graph" transform="scale(1 1) rotate(0) translate(4 477)">
<title>snakemake_dag</title>
<polygon fill="white" stroke="transparent" points="-4,4 -4,-477 3529,-477 3529,4 -4,4"/>
<!-- 0 -->
<g id="node1" class="node">
<title>0</title>
<path fill="none" stroke="#d8ac56" stroke-width="2" d="M1598.5,-36C1598.5,-36 1568.5,-36 1568.5,-36 1562.5,-36 1556.5,-30 1556.5,-24 1556.5,-24 1556.5,-12 1556.5,-12 1556.5,-6 1562.5,0 1568.5,0 1568.5,0 1598.5,0 1598.5,0 1604.5,0 1610.5,-6 1610.5,-12 1610.5,-12 1610.5,-24 1610.5,-24 1610.5,-30 1604.5,-36 1598.5,-36"/>
<text text-anchor="middle" x="1583.5" y="-15.5" font-family="sans" font-size="10.00">all</text>
</g>
<!-- 1 -->
<g id="node2" class="node">
<title>1</title>
<path fill="none" stroke="#afd856" stroke-width="2" stroke-dasharray="5,2" d="M253,-182.5C253,-182.5 158,-182.5 158,-182.5 152,-182.5 146,-176.5 146,-170.5 146,-170.5 146,-158.5 146,-158.5 146,-152.5 152,-146.5 158,-146.5 158,-146.5 253,-146.5 253,-146.5 259,-146.5 265,-152.5 265,-158.5 265,-158.5 265,-170.5 265,-170.5 265,-176.5 259,-182.5 253,-182.5"/>
<text text-anchor="middle" x="205.5" y="-162" font-family="sans" font-size="10.00">select_multimappers</text>
</g>
<!-- 1&#45;&gt;0 -->
<g id="edge1" class="edge">
<title>1&#45;&gt;0</title>
<path fill="none" stroke="grey" stroke-width="2" d="M225.09,-146.48C251.64,-124.59 301.51,-87.54 351.5,-72 467.94,-35.8 1352.81,-22.06 1546.23,-19.47"/>
<polygon fill="grey" stroke="grey" stroke-width="2" points="1546.49,-22.97 1556.45,-19.33 1546.4,-15.97 1546.49,-22.97"/>
</g>
<!-- 2 -->
<g id="node3" class="node">
<title>2</title>
<path fill="none" stroke="#afd856" stroke-width="2" stroke-dasharray="5,2" d="M559,-182.5C559,-182.5 464,-182.5 464,-182.5 458,-182.5 452,-176.5 452,-170.5 452,-170.5 452,-158.5 452,-158.5 452,-152.5 458,-146.5 464,-146.5 464,-146.5 559,-146.5 559,-146.5 565,-146.5 571,-152.5 571,-158.5 571,-158.5 571,-170.5 571,-170.5 571,-176.5 565,-182.5 559,-182.5"/>
<text text-anchor="middle" x="511.5" y="-162" font-family="sans" font-size="10.00">select_multimappers</text>
</g>
<!-- 2&#45;&gt;0 -->
<g id="edge2" class="edge">
<title>2&#45;&gt;0</title>
<path fill="none" stroke="grey" stroke-width="2" d="M531.58,-146.21C558.28,-124.4 607.91,-87.8 657.5,-72 827.18,-17.93 1394.95,-17.73 1546.21,-18.67"/>
<polygon fill="grey" stroke="grey" stroke-width="2" points="1546.34,-22.17 1556.37,-18.74 1546.39,-15.18 1546.34,-22.17"/>
</g>
<!-- 3 -->
<g id="node4" class="node">
<title>3</title>
<path fill="none" stroke="#afd856" stroke-width="2" stroke-dasharray="5,2" d="M865,-182.5C865,-182.5 770,-182.5 770,-182.5 764,-182.5 758,-176.5 758,-170.5 758,-170.5 758,-158.5 758,-158.5 758,-152.5 764,-146.5 770,-146.5 770,-146.5 865,-146.5 865,-146.5 871,-146.5 877,-152.5 877,-158.5 877,-158.5 877,-170.5 877,-170.5 877,-176.5 871,-182.5 865,-182.5"/>
<text text-anchor="middle" x="817.5" y="-162" font-family="sans" font-size="10.00">select_multimappers</text>
</g>
<!-- 3&#45;&gt;0 -->
<g id="edge3" class="edge">
<title>3&#45;&gt;0</title>
<path fill="none" stroke="grey" stroke-width="2" d="M837.65,-146.43C864.43,-124.84 914.13,-88.5 963.5,-72 1072.67,-35.51 1429.7,-23.05 1546.3,-19.89"/>
<polygon fill="grey" stroke="grey" stroke-width="2" points="1546.59,-23.39 1556.5,-19.62 1546.41,-16.39 1546.59,-23.39"/>
</g>
<!-- 4 -->
<g id="node5" class="node">
<title>4</title>
<path fill="none" stroke="#afd856" stroke-width="2" stroke-dasharray="5,2" d="M1166,-182.5C1166,-182.5 1071,-182.5 1071,-182.5 1065,-182.5 1059,-176.5 1059,-170.5 1059,-170.5 1059,-158.5 1059,-158.5 1059,-152.5 1065,-146.5 1071,-146.5 1071,-146.5 1166,-146.5 1166,-146.5 1172,-146.5 1178,-152.5 1178,-158.5 1178,-158.5 1178,-170.5 1178,-170.5 1178,-176.5 1172,-182.5 1166,-182.5"/>
<text text-anchor="middle" x="1118.5" y="-162" font-family="sans" font-size="10.00">select_multimappers</text>
</g>
<!-- 4&#45;&gt;0 -->
<g id="edge4" class="edge">
<title>4&#45;&gt;0</title>
<path fill="none" stroke="grey" stroke-width="2" d="M1134.34,-146.45C1155.13,-125.24 1193.79,-89.66 1234.5,-72 1340.75,-25.91 1480.32,-18.99 1546.11,-18.52"/>
<polygon fill="grey" stroke="grey" stroke-width="2" points="1546.4,-22.02 1556.4,-18.5 1546.39,-15.02 1546.4,-22.02"/>
</g>
<!-- 5 -->
<g id="node6" class="node">
<title>5</title>
<path fill="none" stroke="#afd856" stroke-width="2" stroke-dasharray="5,2" d="M1432,-182.5C1432,-182.5 1337,-182.5 1337,-182.5 1331,-182.5 1325,-176.5 1325,-170.5 1325,-170.5 1325,-158.5 1325,-158.5 1325,-152.5 1331,-146.5 1337,-146.5 1337,-146.5 1432,-146.5 1432,-146.5 1438,-146.5 1444,-152.5 1444,-158.5 1444,-158.5 1444,-170.5 1444,-170.5 1444,-176.5 1438,-182.5 1432,-182.5"/>
<text text-anchor="middle" x="1384.5" y="-162" font-family="sans" font-size="10.00">select_multimappers</text>
</g>
<!-- 5&#45;&gt;0 -->
<g id="edge5" class="edge">
<title>5&#45;&gt;0</title>
<path fill="none" stroke="grey" stroke-width="2" d="M1400.73,-146.25C1419.65,-126.73 1452.43,-94.71 1484.5,-72 1504.19,-58.06 1527.97,-45.21 1547.3,-35.65"/>
<polygon fill="grey" stroke="grey" stroke-width="2" points="1548.92,-38.76 1556.39,-31.24 1545.86,-32.46 1548.92,-38.76"/>
</g>
<!-- 6 -->
<g id="node7" class="node">
<title>6</title>
<path fill="none" stroke="#afd856" stroke-width="2" stroke-dasharray="5,2" d="M1698,-182.5C1698,-182.5 1603,-182.5 1603,-182.5 1597,-182.5 1591,-176.5 1591,-170.5 1591,-170.5 1591,-158.5 1591,-158.5 1591,-152.5 1597,-146.5 1603,-146.5 1603,-146.5 1698,-146.5 1698,-146.5 1704,-146.5 1710,-152.5 1710,-158.5 1710,-158.5 1710,-170.5 1710,-170.5 1710,-176.5 1704,-182.5 1698,-182.5"/>
<text text-anchor="middle" x="1650.5" y="-162" font-family="sans" font-size="10.00">select_multimappers</text>
</g>
<!-- 6&#45;&gt;0 -->
<g id="edge6" class="edge">
<title>6&#45;&gt;0</title>
<path fill="none" stroke="grey" stroke-width="2" d="M1642.55,-146.36C1630.97,-121.37 1609.34,-74.74 1595.72,-45.36"/>
<polygon fill="grey" stroke="grey" stroke-width="2" points="1598.82,-43.72 1591.44,-36.12 1592.47,-46.67 1598.82,-43.72"/>
</g>
<!-- 7 -->
<g id="node8" class="node">
<title>7</title>
<path fill="none" stroke="#afd856" stroke-width="2" stroke-dasharray="5,2" d="M2019,-182.5C2019,-182.5 1924,-182.5 1924,-182.5 1918,-182.5 1912,-176.5 1912,-170.5 1912,-170.5 1912,-158.5 1912,-158.5 1912,-152.5 1918,-146.5 1924,-146.5 1924,-146.5 2019,-146.5 2019,-146.5 2025,-146.5 2031,-152.5 2031,-158.5 2031,-158.5 2031,-170.5 2031,-170.5 2031,-176.5 2025,-182.5 2019,-182.5"/>
<text text-anchor="middle" x="1971.5" y="-162" font-family="sans" font-size="10.00">select_multimappers</text>
</g>
<!-- 7&#45;&gt;0 -->
<g id="edge7" class="edge">
<title>7&#45;&gt;0</title>
<path fill="none" stroke="grey" stroke-width="2" d="M1944.5,-146.4C1911.44,-126.13 1853.22,-92.51 1799.5,-72 1738.72,-48.79 1664.38,-33.17 1620.66,-25.21"/>
<polygon fill="grey" stroke="grey" stroke-width="2" points="1621.21,-21.75 1610.75,-23.44 1619.98,-28.64 1621.21,-21.75"/>
</g>
<!-- 8 -->
<g id="node9" class="node">
<title>8</title>
<path fill="none" stroke="#afd856" stroke-width="2" stroke-dasharray="5,2" d="M2373,-182.5C2373,-182.5 2278,-182.5 2278,-182.5 2272,-182.5 2266,-176.5 2266,-170.5 2266,-170.5 2266,-158.5 2266,-158.5 2266,-152.5 2272,-146.5 2278,-146.5 2278,-146.5 2373,-146.5 2373,-146.5 2379,-146.5 2385,-152.5 2385,-158.5 2385,-158.5 2385,-170.5 2385,-170.5 2385,-176.5 2379,-182.5 2373,-182.5"/>
<text text-anchor="middle" x="2325.5" y="-162" font-family="sans" font-size="10.00">select_multimappers</text>
</g>
<!-- 8&#45;&gt;0 -->
<g id="edge8" class="edge">
<title>8&#45;&gt;0</title>
<path fill="none" stroke="grey" stroke-width="2" d="M2291.26,-146.48C2246.99,-125.3 2166.98,-89.76 2094.5,-72 1920.87,-29.46 1705.89,-21.05 1620.74,-19.4"/>
<polygon fill="grey" stroke="grey" stroke-width="2" points="1620.6,-15.89 1610.54,-19.22 1620.48,-22.89 1620.6,-15.89"/>
</g>
<!-- 9 -->
<g id="node10" class="node">
<title>9</title>
<path fill="none" stroke="#afd856" stroke-width="2" stroke-dasharray="5,2" d="M2744,-182.5C2744,-182.5 2649,-182.5 2649,-182.5 2643,-182.5 2637,-176.5 2637,-170.5 2637,-170.5 2637,-158.5 2637,-158.5 2637,-152.5 2643,-146.5 2649,-146.5 2649,-146.5 2744,-146.5 2744,-146.5 2750,-146.5 2756,-152.5 2756,-158.5 2756,-158.5 2756,-170.5 2756,-170.5 2756,-176.5 2750,-182.5 2744,-182.5"/>
<text text-anchor="middle" x="2696.5" y="-162" font-family="sans" font-size="10.00">select_multimappers</text>
</g>
<!-- 9&#45;&gt;0 -->
<g id="edge9" class="edge">
<title>9&#45;&gt;0</title>
<path fill="none" stroke="grey" stroke-width="2" d="M2658.22,-146.46C2607.83,-124.9 2515.97,-88.59 2433.5,-72 2274.57,-40.02 1764.23,-23.94 1621.12,-19.98"/>
<polygon fill="grey" stroke="grey" stroke-width="2" points="1620.79,-16.47 1610.7,-19.7 1620.6,-23.47 1620.79,-16.47"/>
</g>
<!-- 10 -->
<g id="node11" class="node">
<title>10</title>
<path fill="none" stroke="#afd856" stroke-width="2" stroke-dasharray="5,2" d="M3130,-182.5C3130,-182.5 3035,-182.5 3035,-182.5 3029,-182.5 3023,-176.5 3023,-170.5 3023,-170.5 3023,-158.5 3023,-158.5 3023,-152.5 3029,-146.5 3035,-146.5 3035,-146.5 3130,-146.5 3130,-146.5 3136,-146.5 3142,-152.5 3142,-158.5 3142,-158.5 3142,-170.5 3142,-170.5 3142,-176.5 3136,-182.5 3130,-182.5"/>
<text text-anchor="middle" x="3082.5" y="-162" font-family="sans" font-size="10.00">select_multimappers</text>
</g>
<!-- 10&#45;&gt;0 -->
<g id="edge10" class="edge">
<title>10&#45;&gt;0</title>
<path fill="none" stroke="grey" stroke-width="2" d="M3041.23,-146.44C2986.41,-124.69 2886.05,-87.99 2796.5,-72 2562.39,-30.21 1798.62,-20.91 1620.75,-19.3"/>
<polygon fill="grey" stroke="grey" stroke-width="2" points="1620.63,-15.79 1610.6,-19.21 1620.57,-22.79 1620.63,-15.79"/>
</g>
<!-- 11 -->
<g id="node12" class="node">
<title>11</title>
<path fill="none" stroke="#56d882" stroke-width="2" d="M428.5,-108C428.5,-108 372.5,-108 372.5,-108 366.5,-108 360.5,-102 360.5,-96 360.5,-96 360.5,-84 360.5,-84 360.5,-78 366.5,-72 372.5,-72 372.5,-72 428.5,-72 428.5,-72 434.5,-72 440.5,-78 440.5,-84 440.5,-84 440.5,-96 440.5,-96 440.5,-102 434.5,-108 428.5,-108"/>
<text text-anchor="middle" x="400.5" y="-87.5" font-family="sans" font-size="10.00">custom_filter</text>
</g>
<!-- 11&#45;&gt;0 -->
<g id="edge11" class="edge">
<title>11&#45;&gt;0</title>
<path fill="none" stroke="grey" stroke-width="2" d="M440.57,-83.34C468.29,-79.6 506.07,-74.89 539.5,-72 932.51,-38.03 1410.78,-23.54 1546.19,-19.94"/>
<polygon fill="grey" stroke="grey" stroke-width="2" points="1546.53,-23.43 1556.43,-19.67 1546.34,-16.43 1546.53,-23.43"/>
</g>
<!-- 12 -->
<g id="node13" class="node">
<title>12</title>
<path fill="none" stroke="#56d882" stroke-width="2" d="M734.5,-108C734.5,-108 678.5,-108 678.5,-108 672.5,-108 666.5,-102 666.5,-96 666.5,-96 666.5,-84 666.5,-84 666.5,-78 672.5,-72 678.5,-72 678.5,-72 734.5,-72 734.5,-72 740.5,-72 746.5,-78 746.5,-84 746.5,-84 746.5,-96 746.5,-96 746.5,-102 740.5,-108 734.5,-108"/>
<text text-anchor="middle" x="706.5" y="-87.5" font-family="sans" font-size="10.00">custom_filter</text>
</g>
<!-- 12&#45;&gt;0 -->
<g id="edge12" class="edge">
<title>12&#45;&gt;0</title>
<path fill="none" stroke="grey" stroke-width="2" d="M746.6,-83.33C773.19,-79.71 808.88,-75.13 840.5,-72 1110.76,-45.24 1437.62,-26.72 1546.34,-20.93"/>
<polygon fill="grey" stroke="grey" stroke-width="2" points="1546.66,-24.41 1556.47,-20.39 1546.29,-17.42 1546.66,-24.41"/>
</g>
<!-- 13 -->
<g id="node14" class="node">
<title>13</title>
<path fill="none" stroke="#56d882" stroke-width="2" d="M1040.5,-108C1040.5,-108 984.5,-108 984.5,-108 978.5,-108 972.5,-102 972.5,-96 972.5,-96 972.5,-84 972.5,-84 972.5,-78 978.5,-72 984.5,-72 984.5,-72 1040.5,-72 1040.5,-72 1046.5,-72 1052.5,-78 1052.5,-84 1052.5,-84 1052.5,-96 1052.5,-96 1052.5,-102 1046.5,-108 1040.5,-108"/>
<text text-anchor="middle" x="1012.5" y="-87.5" font-family="sans" font-size="10.00">custom_filter</text>
</g>
<!-- 13&#45;&gt;0 -->
<g id="edge13" class="edge">
<title>13&#45;&gt;0</title>
<path fill="none" stroke="grey" stroke-width="2" d="M1052.68,-83.3C1076.94,-79.91 1108.48,-75.58 1136.5,-72 1288.27,-52.6 1469.36,-31.87 1546.14,-23.2"/>
<polygon fill="grey" stroke="grey" stroke-width="2" points="1546.72,-26.65 1556.27,-22.05 1545.94,-19.7 1546.72,-26.65"/>
</g>
<!-- 14 -->
<g id="node15" class="node">
<title>14</title>
<path fill="none" stroke="#56d882" stroke-width="2" d="M1311.5,-108C1311.5,-108 1255.5,-108 1255.5,-108 1249.5,-108 1243.5,-102 1243.5,-96 1243.5,-96 1243.5,-84 1243.5,-84 1243.5,-78 1249.5,-72 1255.5,-72 1255.5,-72 1311.5,-72 1311.5,-72 1317.5,-72 1323.5,-78 1323.5,-84 1323.5,-84 1323.5,-96 1323.5,-96 1323.5,-102 1317.5,-108 1311.5,-108"/>
<text text-anchor="middle" x="1283.5" y="-87.5" font-family="sans" font-size="10.00">custom_filter</text>
</g>
<!-- 14&#45;&gt;0 -->
<g id="edge14" class="edge">
<title>14&#45;&gt;0</title>
<path fill="none" stroke="grey" stroke-width="2" d="M1323.65,-79.63C1382.12,-65.99 1489.88,-40.84 1546.51,-27.63"/>
<polygon fill="grey" stroke="grey" stroke-width="2" points="1547.53,-30.99 1556.47,-25.31 1545.93,-24.17 1547.53,-30.99"/>
</g>
<!-- 15 -->
<g id="node16" class="node">
<title>15</title>
<path fill="none" stroke="#56d882" stroke-width="2" d="M1561.5,-108C1561.5,-108 1505.5,-108 1505.5,-108 1499.5,-108 1493.5,-102 1493.5,-96 1493.5,-96 1493.5,-84 1493.5,-84 1493.5,-78 1499.5,-72 1505.5,-72 1505.5,-72 1561.5,-72 1561.5,-72 1567.5,-72 1573.5,-78 1573.5,-84 1573.5,-84 1573.5,-96 1573.5,-96 1573.5,-102 1567.5,-108 1561.5,-108"/>
<text text-anchor="middle" x="1533.5" y="-87.5" font-family="sans" font-size="10.00">custom_filter</text>
</g>
<!-- 15&#45;&gt;0 -->
<g id="edge15" class="edge">
<title>15&#45;&gt;0</title>
<path fill="none" stroke="grey" stroke-width="2" d="M1545.86,-71.7C1551.73,-63.47 1558.87,-53.48 1565.34,-44.42"/>
<polygon fill="grey" stroke="grey" stroke-width="2" points="1568.32,-46.28 1571.28,-36.1 1562.62,-42.21 1568.32,-46.28"/>
</g>
<!-- 16 -->
<g id="node17" class="node">
<title>16</title>
<path fill="none" stroke="#56d882" stroke-width="2" d="M1778.5,-108C1778.5,-108 1722.5,-108 1722.5,-108 1716.5,-108 1710.5,-102 1710.5,-96 1710.5,-96 1710.5,-84 1710.5,-84 1710.5,-78 1716.5,-72 1722.5,-72 1722.5,-72 1778.5,-72 1778.5,-72 1784.5,-72 1790.5,-78 1790.5,-84 1790.5,-84 1790.5,-96 1790.5,-96 1790.5,-102 1784.5,-108 1778.5,-108"/>
<text text-anchor="middle" x="1750.5" y="-87.5" font-family="sans" font-size="10.00">custom_filter</text>
</g>
<!-- 16&#45;&gt;0 -->
<g id="edge16" class="edge">
<title>16&#45;&gt;0</title>
<path fill="none" stroke="grey" stroke-width="2" d="M1710.5,-72.23C1683,-60.71 1646.76,-45.52 1620.04,-34.32"/>
<polygon fill="grey" stroke="grey" stroke-width="2" points="1621.23,-31.02 1610.66,-30.38 1618.53,-37.48 1621.23,-31.02"/>
</g>
<!-- 17 -->
<g id="node18" class="node">
<title>17</title>
<path fill="none" stroke="#56d882" stroke-width="2" d="M2073.5,-108C2073.5,-108 2017.5,-108 2017.5,-108 2011.5,-108 2005.5,-102 2005.5,-96 2005.5,-96 2005.5,-84 2005.5,-84 2005.5,-78 2011.5,-72 2017.5,-72 2017.5,-72 2073.5,-72 2073.5,-72 2079.5,-72 2085.5,-78 2085.5,-84 2085.5,-84 2085.5,-96 2085.5,-96 2085.5,-102 2079.5,-108 2073.5,-108"/>
<text text-anchor="middle" x="2045.5" y="-87.5" font-family="sans" font-size="10.00">custom_filter</text>
</g>
<!-- 17&#45;&gt;0 -->
<g id="edge17" class="edge">
<title>17&#45;&gt;0</title>
<path fill="none" stroke="grey" stroke-width="2" d="M2005.31,-82.91C1916.8,-69.5 1706.12,-37.58 1620.57,-24.62"/>
<polygon fill="grey" stroke="grey" stroke-width="2" points="1620.94,-21.13 1610.53,-23.1 1619.89,-28.05 1620.94,-21.13"/>
</g>
<!-- 18 -->
<g id="node19" class="node">
<title>18</title>
<path fill="none" stroke="#56d882" stroke-width="2" stroke-dasharray="5,2" d="M2412.5,-108C2412.5,-108 2356.5,-108 2356.5,-108 2350.5,-108 2344.5,-102 2344.5,-96 2344.5,-96 2344.5,-84 2344.5,-84 2344.5,-78 2350.5,-72 2356.5,-72 2356.5,-72 2412.5,-72 2412.5,-72 2418.5,-72 2424.5,-78 2424.5,-84 2424.5,-84 2424.5,-96 2424.5,-96 2424.5,-102 2418.5,-108 2412.5,-108"/>
<text text-anchor="middle" x="2384.5" y="-87.5" font-family="sans" font-size="10.00">custom_filter</text>
</g>
<!-- 18&#45;&gt;0 -->
<g id="edge18" class="edge">
<title>18&#45;&gt;0</title>
<path fill="none" stroke="grey" stroke-width="2" d="M2344.48,-83.83C2315.83,-80.23 2276.33,-75.47 2241.5,-72 2005.76,-48.5 1721.69,-28.39 1621.06,-21.52"/>
<polygon fill="grey" stroke="grey" stroke-width="2" points="1621.01,-18.01 1610.8,-20.83 1620.54,-25 1621.01,-18.01"/>
</g>
<!-- 19 -->
<g id="node20" class="node">
<title>19</title>
<path fill="none" stroke="#56d882" stroke-width="2" d="M2775.5,-108C2775.5,-108 2719.5,-108 2719.5,-108 2713.5,-108 2707.5,-102 2707.5,-96 2707.5,-96 2707.5,-84 2707.5,-84 2707.5,-78 2713.5,-72 2719.5,-72 2719.5,-72 2775.5,-72 2775.5,-72 2781.5,-72 2787.5,-78 2787.5,-84 2787.5,-84 2787.5,-96 2787.5,-96 2787.5,-102 2781.5,-108 2775.5,-108"/>
<text text-anchor="middle" x="2747.5" y="-87.5" font-family="sans" font-size="10.00">custom_filter</text>
</g>
<!-- 19&#45;&gt;0 -->
<g id="edge19" class="edge">
<title>19&#45;&gt;0</title>
<path fill="none" stroke="grey" stroke-width="2" d="M2707.19,-83.8C2676.81,-80.04 2634.1,-75.1 2596.5,-72 2215.85,-40.64 1753.12,-24.38 1620.58,-20.14"/>
<polygon fill="grey" stroke="grey" stroke-width="2" points="1620.65,-16.64 1610.54,-19.82 1620.43,-23.64 1620.65,-16.64"/>
</g>
<!-- 20 -->
<g id="node21" class="node">
<title>20</title>
<path fill="none" stroke="#56d882" stroke-width="2" d="M3155.5,-108C3155.5,-108 3099.5,-108 3099.5,-108 3093.5,-108 3087.5,-102 3087.5,-96 3087.5,-96 3087.5,-84 3087.5,-84 3087.5,-78 3093.5,-72 3099.5,-72 3099.5,-72 3155.5,-72 3155.5,-72 3161.5,-72 3167.5,-78 3167.5,-84 3167.5,-84 3167.5,-96 3167.5,-96 3167.5,-102 3161.5,-108 3155.5,-108"/>
<text text-anchor="middle" x="3127.5" y="-87.5" font-family="sans" font-size="10.00">custom_filter</text>
</g>
<!-- 20&#45;&gt;0 -->
<g id="edge20" class="edge">
<title>20&#45;&gt;0</title>
<path fill="none" stroke="grey" stroke-width="2" d="M3087.24,-83.86C3055.56,-80 3010.28,-74.91 2970.5,-72 2436.03,-32.9 1783.45,-21.74 1621.31,-19.48"/>
<polygon fill="grey" stroke="grey" stroke-width="2" points="1620.96,-15.97 1610.91,-19.34 1620.87,-22.97 1620.96,-15.97"/>
</g>
<!-- 21 -->
<g id="node22" class="node">
<title>21</title>
<path fill="none" stroke="#5682d8" stroke-width="2" stroke-dasharray="5,2" d="M275.5,-257C275.5,-257 135.5,-257 135.5,-257 129.5,-257 123.5,-251 123.5,-245 123.5,-245 123.5,-233 123.5,-233 123.5,-227 129.5,-221 135.5,-221 135.5,-221 275.5,-221 275.5,-221 281.5,-221 287.5,-227 287.5,-233 287.5,-233 287.5,-245 287.5,-245 287.5,-251 281.5,-257 275.5,-257"/>
<text text-anchor="middle" x="205.5" y="-242" font-family="sans" font-size="10.00">select_locus</text>
<text text-anchor="middle" x="205.5" y="-231" font-family="sans" font-size="10.00">sample: ASC_D07G_P6_D0_hq</text>
</g>
<!-- 21&#45;&gt;1 -->
<g id="edge21" class="edge">
<title>21&#45;&gt;1</title>
<path fill="none" stroke="grey" stroke-width="2" d="M205.5,-220.82C205.5,-212.42 205.5,-202.12 205.5,-192.69"/>
<polygon fill="grey" stroke="grey" stroke-width="2" points="209,-192.56 205.5,-182.56 202,-192.56 209,-192.56"/>
</g>
<!-- 41 -->
<g id="node42" class="node">
<title>41</title>
<path fill="none" stroke="#56a9d8" stroke-width="2" stroke-dasharray="5,2" d="M402,-185C402,-185 315,-185 315,-185 309,-185 303,-179 303,-173 303,-173 303,-156 303,-156 303,-150 309,-144 315,-144 315,-144 402,-144 402,-144 408,-144 414,-150 414,-156 414,-156 414,-173 414,-173 414,-179 408,-185 402,-185"/>
<text text-anchor="middle" x="358.5" y="-173" font-family="sans" font-size="10.00">cupcake_collapse</text>
<text text-anchor="middle" x="358.5" y="-162" font-family="sans" font-size="10.00">dataset: ASC_D07G</text>
<text text-anchor="middle" x="358.5" y="-151" font-family="sans" font-size="10.00">sample: P6_D0</text>
</g>
<!-- 21&#45;&gt;41 -->
<g id="edge71" class="edge">
<title>21&#45;&gt;41</title>
<path fill="none" stroke="grey" stroke-width="2" d="M241.76,-220.82C261.55,-211.44 286.37,-199.68 308.03,-189.42"/>
<polygon fill="grey" stroke="grey" stroke-width="2" points="309.56,-192.56 317.1,-185.12 306.56,-186.24 309.56,-192.56"/>
</g>
<!-- 22 -->
<g id="node23" class="node">
<title>22</title>
<path fill="none" stroke="#59d856" stroke-width="2" stroke-dasharray="5,2" d="M93,-257C93,-257 12,-257 12,-257 6,-257 0,-251 0,-245 0,-245 0,-233 0,-233 0,-227 6,-221 12,-221 12,-221 93,-221 93,-221 99,-221 105,-227 105,-233 105,-233 105,-245 105,-245 105,-251 99,-257 93,-257"/>
<text text-anchor="middle" x="52.5" y="-236.5" font-family="sans" font-size="10.00">list_mulitmappers</text>
</g>
<!-- 22&#45;&gt;1 -->
<g id="edge22" class="edge">
<title>22&#45;&gt;1</title>
<path fill="none" stroke="grey" stroke-width="2" d="M88.76,-220.82C110.19,-210.66 137.52,-197.71 160.35,-186.89"/>
<polygon fill="grey" stroke="grey" stroke-width="2" points="161.96,-190 169.5,-182.56 158.97,-183.68 161.96,-190"/>
</g>
<!-- 23 -->
<g id="node24" class="node">
<title>23</title>
<path fill="none" stroke="#5682d8" stroke-width="2" stroke-dasharray="5,2" d="M581.5,-257C581.5,-257 441.5,-257 441.5,-257 435.5,-257 429.5,-251 429.5,-245 429.5,-245 429.5,-233 429.5,-233 429.5,-227 435.5,-221 441.5,-221 441.5,-221 581.5,-221 581.5,-221 587.5,-221 593.5,-227 593.5,-233 593.5,-233 593.5,-245 593.5,-245 593.5,-251 587.5,-257 581.5,-257"/>
<text text-anchor="middle" x="511.5" y="-242" font-family="sans" font-size="10.00">select_locus</text>
<text text-anchor="middle" x="511.5" y="-231" font-family="sans" font-size="10.00">sample: ASC_D07G_P6_D1_hq</text>
</g>
<!-- 23&#45;&gt;2 -->
<g id="edge23" class="edge">
<title>23&#45;&gt;2</title>
<path fill="none" stroke="grey" stroke-width="2" d="M511.5,-220.82C511.5,-212.42 511.5,-202.12 511.5,-192.69"/>
<polygon fill="grey" stroke="grey" stroke-width="2" points="515,-192.56 511.5,-182.56 508,-192.56 515,-192.56"/>
</g>
<!-- 42 -->
<g id="node43" class="node">
<title>42</title>
<path fill="none" stroke="#56a9d8" stroke-width="2" stroke-dasharray="5,2" d="M708,-185C708,-185 621,-185 621,-185 615,-185 609,-179 609,-173 609,-173 609,-156 609,-156 609,-150 615,-144 621,-144 621,-144 708,-144 708,-144 714,-144 720,-150 720,-156 720,-156 720,-173 720,-173 720,-179 714,-185 708,-185"/>
<text text-anchor="middle" x="664.5" y="-173" font-family="sans" font-size="10.00">cupcake_collapse</text>
<text text-anchor="middle" x="664.5" y="-162" font-family="sans" font-size="10.00">dataset: ASC_D07G</text>
<text text-anchor="middle" x="664.5" y="-151" font-family="sans" font-size="10.00">sample: P6_D1</text>
</g>
<!-- 23&#45;&gt;42 -->
<g id="edge72" class="edge">
<title>23&#45;&gt;42</title>
<path fill="none" stroke="grey" stroke-width="2" d="M547.76,-220.82C567.55,-211.44 592.37,-199.68 614.03,-189.42"/>
<polygon fill="grey" stroke="grey" stroke-width="2" points="615.56,-192.56 623.1,-185.12 612.56,-186.24 615.56,-192.56"/>
</g>
<!-- 24 -->
<g id="node25" class="node">
<title>24</title>
<path fill="none" stroke="#59d856" stroke-width="2" stroke-dasharray="5,2" d="M399,-257C399,-257 318,-257 318,-257 312,-257 306,-251 306,-245 306,-245 306,-233 306,-233 306,-227 312,-221 318,-221 318,-221 399,-221 399,-221 405,-221 411,-227 411,-233 411,-233 411,-245 411,-245 411,-251 405,-257 399,-257"/>
<text text-anchor="middle" x="358.5" y="-236.5" font-family="sans" font-size="10.00">list_mulitmappers</text>
</g>
<!-- 24&#45;&gt;2 -->
<g id="edge24" class="edge">
<title>24&#45;&gt;2</title>
<path fill="none" stroke="grey" stroke-width="2" d="M394.76,-220.82C416.19,-210.66 443.52,-197.71 466.35,-186.89"/>
<polygon fill="grey" stroke="grey" stroke-width="2" points="467.96,-190 475.5,-182.56 464.97,-183.68 467.96,-190"/>
</g>
<!-- 25 -->
<g id="node26" class="node">
<title>25</title>
<path fill="none" stroke="#5682d8" stroke-width="2" stroke-dasharray="5,2" d="M887.5,-257C887.5,-257 747.5,-257 747.5,-257 741.5,-257 735.5,-251 735.5,-245 735.5,-245 735.5,-233 735.5,-233 735.5,-227 741.5,-221 747.5,-221 747.5,-221 887.5,-221 887.5,-221 893.5,-221 899.5,-227 899.5,-233 899.5,-233 899.5,-245 899.5,-245 899.5,-251 893.5,-257 887.5,-257"/>
<text text-anchor="middle" x="817.5" y="-242" font-family="sans" font-size="10.00">select_locus</text>
<text text-anchor="middle" x="817.5" y="-231" font-family="sans" font-size="10.00">sample: ASC_D07G_P6_D3_hq</text>
</g>
<!-- 25&#45;&gt;3 -->
<g id="edge25" class="edge">
<title>25&#45;&gt;3</title>
<path fill="none" stroke="grey" stroke-width="2" d="M817.5,-220.82C817.5,-212.42 817.5,-202.12 817.5,-192.69"/>
<polygon fill="grey" stroke="grey" stroke-width="2" points="821,-192.56 817.5,-182.56 814,-192.56 821,-192.56"/>
</g>
<!-- 43 -->
<g id="node44" class="node">
<title>43</title>
<path fill="none" stroke="#56a9d8" stroke-width="2" stroke-dasharray="5,2" d="M1019,-185C1019,-185 932,-185 932,-185 926,-185 920,-179 920,-173 920,-173 920,-156 920,-156 920,-150 926,-144 932,-144 932,-144 1019,-144 1019,-144 1025,-144 1031,-150 1031,-156 1031,-156 1031,-173 1031,-173 1031,-179 1025,-185 1019,-185"/>
<text text-anchor="middle" x="975.5" y="-173" font-family="sans" font-size="10.00">cupcake_collapse</text>
<text text-anchor="middle" x="975.5" y="-162" font-family="sans" font-size="10.00">dataset: ASC_D07G</text>
<text text-anchor="middle" x="975.5" y="-151" font-family="sans" font-size="10.00">sample: P6_D3</text>
</g>
<!-- 25&#45;&gt;43 -->
<g id="edge73" class="edge">
<title>25&#45;&gt;43</title>
<path fill="none" stroke="grey" stroke-width="2" d="M854.94,-220.82C875.38,-211.44 901.02,-199.68 923.38,-189.42"/>
<polygon fill="grey" stroke="grey" stroke-width="2" points="925.11,-192.47 932.74,-185.12 922.19,-186.11 925.11,-192.47"/>
</g>
<!-- 26 -->
<g id="node27" class="node">
<title>26</title>
<path fill="none" stroke="#59d856" stroke-width="2" stroke-dasharray="5,2" d="M705,-257C705,-257 624,-257 624,-257 618,-257 612,-251 612,-245 612,-245 612,-233 612,-233 612,-227 618,-221 624,-221 624,-221 705,-221 705,-221 711,-221 717,-227 717,-233 717,-233 717,-245 717,-245 717,-251 711,-257 705,-257"/>
<text text-anchor="middle" x="664.5" y="-236.5" font-family="sans" font-size="10.00">list_mulitmappers</text>
</g>
<!-- 26&#45;&gt;3 -->
<g id="edge26" class="edge">
<title>26&#45;&gt;3</title>
<path fill="none" stroke="grey" stroke-width="2" d="M700.76,-220.82C722.19,-210.66 749.52,-197.71 772.35,-186.89"/>
<polygon fill="grey" stroke="grey" stroke-width="2" points="773.96,-190 781.5,-182.56 770.97,-183.68 773.96,-190"/>
</g>
<!-- 27 -->
<g id="node28" class="node">
<title>27</title>
<path fill="none" stroke="#5682d8" stroke-width="2" stroke-dasharray="5,2" d="M1193.5,-257C1193.5,-257 1053.5,-257 1053.5,-257 1047.5,-257 1041.5,-251 1041.5,-245 1041.5,-245 1041.5,-233 1041.5,-233 1041.5,-227 1047.5,-221 1053.5,-221 1053.5,-221 1193.5,-221 1193.5,-221 1199.5,-221 1205.5,-227 1205.5,-233 1205.5,-233 1205.5,-245 1205.5,-245 1205.5,-251 1199.5,-257 1193.5,-257"/>
<text text-anchor="middle" x="1123.5" y="-242" font-family="sans" font-size="10.00">select_locus</text>
<text text-anchor="middle" x="1123.5" y="-231" font-family="sans" font-size="10.00">sample: ASC_D07G_P6_D9_hq</text>
</g>
<!-- 27&#45;&gt;4 -->
<g id="edge27" class="edge">
<title>27&#45;&gt;4</title>
<path fill="none" stroke="grey" stroke-width="2" d="M1122.32,-220.82C1121.74,-212.42 1121.03,-202.12 1120.37,-192.69"/>
<polygon fill="grey" stroke="grey" stroke-width="2" points="1123.86,-192.29 1119.68,-182.56 1116.87,-192.78 1123.86,-192.29"/>
</g>
<!-- 44 -->
<g id="node45" class="node">
<title>44</title>
<path fill="none" stroke="#56a9d8" stroke-width="2" stroke-dasharray="5,2" d="M1295,-185C1295,-185 1208,-185 1208,-185 1202,-185 1196,-179 1196,-173 1196,-173 1196,-156 1196,-156 1196,-150 1202,-144 1208,-144 1208,-144 1295,-144 1295,-144 1301,-144 1307,-150 1307,-156 1307,-156 1307,-173 1307,-173 1307,-179 1301,-185 1295,-185"/>
<text text-anchor="middle" x="1251.5" y="-173" font-family="sans" font-size="10.00">cupcake_collapse</text>
<text text-anchor="middle" x="1251.5" y="-162" font-family="sans" font-size="10.00">dataset: ASC_D07G</text>
<text text-anchor="middle" x="1251.5" y="-151" font-family="sans" font-size="10.00">sample: P6_D9</text>
</g>
<!-- 27&#45;&gt;44 -->
<g id="edge74" class="edge">
<title>27&#45;&gt;44</title>
<path fill="none" stroke="grey" stroke-width="2" d="M1153.83,-220.82C1169.95,-211.69 1190.05,-200.31 1207.82,-190.24"/>
<polygon fill="grey" stroke="grey" stroke-width="2" points="1209.89,-193.09 1216.86,-185.12 1206.44,-187 1209.89,-193.09"/>
</g>
<!-- 28 -->
<g id="node29" class="node">
<title>28</title>
<path fill="none" stroke="#59d856" stroke-width="2" stroke-dasharray="5,2" d="M1011,-257C1011,-257 930,-257 930,-257 924,-257 918,-251 918,-245 918,-245 918,-233 918,-233 918,-227 924,-221 930,-221 930,-221 1011,-221 1011,-221 1017,-221 1023,-227 1023,-233 1023,-233 1023,-245 1023,-245 1023,-251 1017,-257 1011,-257"/>
<text text-anchor="middle" x="970.5" y="-236.5" font-family="sans" font-size="10.00">list_mulitmappers</text>
</g>
<!-- 28&#45;&gt;4 -->
<g id="edge28" class="edge">
<title>28&#45;&gt;4</title>
<path fill="none" stroke="grey" stroke-width="2" d="M1005.57,-220.82C1026.22,-210.71 1052.51,-197.83 1074.53,-187.04"/>
<polygon fill="grey" stroke="grey" stroke-width="2" points="1076.24,-190.1 1083.68,-182.56 1073.16,-183.81 1076.24,-190.1"/>
</g>
<!-- 29 -->
<g id="node30" class="node">
<title>29</title>
<path fill="none" stroke="#5682d8" stroke-width="2" stroke-dasharray="5,2" d="M1519.5,-257C1519.5,-257 1359.5,-257 1359.5,-257 1353.5,-257 1347.5,-251 1347.5,-245 1347.5,-245 1347.5,-233 1347.5,-233 1347.5,-227 1353.5,-221 1359.5,-221 1359.5,-221 1519.5,-221 1519.5,-221 1525.5,-221 1531.5,-227 1531.5,-233 1531.5,-233 1531.5,-245 1531.5,-245 1531.5,-251 1525.5,-257 1519.5,-257"/>
<text text-anchor="middle" x="1439.5" y="-242" font-family="sans" font-size="10.00">select_locus</text>
<text text-anchor="middle" x="1439.5" y="-231" font-family="sans" font-size="10.00">sample: ASC_D07G_P6_PROLIF_hq</text>
</g>
<!-- 29&#45;&gt;5 -->
<g id="edge29" class="edge">
<title>29&#45;&gt;5</title>
<path fill="none" stroke="grey" stroke-width="2" d="M1426.47,-220.82C1419.62,-211.79 1411.09,-200.55 1403.52,-190.57"/>
<polygon fill="grey" stroke="grey" stroke-width="2" points="1406.27,-188.41 1397.44,-182.56 1400.7,-192.64 1406.27,-188.41"/>
</g>
<!-- 45 -->
<g id="node46" class="node">
<title>45</title>
<path fill="none" stroke="#56a9d8" stroke-width="2" stroke-dasharray="5,2" d="M1561,-185C1561,-185 1474,-185 1474,-185 1468,-185 1462,-179 1462,-173 1462,-173 1462,-156 1462,-156 1462,-150 1468,-144 1474,-144 1474,-144 1561,-144 1561,-144 1567,-144 1573,-150 1573,-156 1573,-156 1573,-173 1573,-173 1573,-179 1567,-185 1561,-185"/>
<text text-anchor="middle" x="1517.5" y="-173" font-family="sans" font-size="10.00">cupcake_collapse</text>
<text text-anchor="middle" x="1517.5" y="-162" font-family="sans" font-size="10.00">dataset: ASC_D07G</text>
<text text-anchor="middle" x="1517.5" y="-151" font-family="sans" font-size="10.00">sample: P6_PROLIF</text>
</g>
<!-- 29&#45;&gt;45 -->
<g id="edge75" class="edge">
<title>29&#45;&gt;45</title>
<path fill="none" stroke="grey" stroke-width="2" d="M1457.98,-220.82C1467.18,-212.28 1478.49,-201.76 1488.78,-192.2"/>
<polygon fill="grey" stroke="grey" stroke-width="2" points="1491.45,-194.49 1496.39,-185.12 1486.68,-189.36 1491.45,-194.49"/>
</g>
<!-- 30 -->
<g id="node31" class="node">
<title>30</title>
<path fill="none" stroke="#59d856" stroke-width="2" stroke-dasharray="5,2" d="M1317,-257C1317,-257 1236,-257 1236,-257 1230,-257 1224,-251 1224,-245 1224,-245 1224,-233 1224,-233 1224,-227 1230,-221 1236,-221 1236,-221 1317,-221 1317,-221 1323,-221 1329,-227 1329,-233 1329,-233 1329,-245 1329,-245 1329,-251 1323,-257 1317,-257"/>
<text text-anchor="middle" x="1276.5" y="-236.5" font-family="sans" font-size="10.00">list_mulitmappers</text>
</g>
<!-- 30&#45;&gt;5 -->
<g id="edge30" class="edge">
<title>30&#45;&gt;5</title>
<path fill="none" stroke="grey" stroke-width="2" d="M1302.09,-220.82C1316.62,-211.07 1334.98,-198.74 1350.68,-188.2"/>
<polygon fill="grey" stroke="grey" stroke-width="2" points="1352.74,-191.04 1359.09,-182.56 1348.84,-185.23 1352.74,-191.04"/>
</g>
<!-- 31 -->
<g id="node32" class="node">
<title>31</title>
<path fill="none" stroke="#5682d8" stroke-width="2" stroke-dasharray="5,2" d="M1853.5,-257C1853.5,-257 1713.5,-257 1713.5,-257 1707.5,-257 1701.5,-251 1701.5,-245 1701.5,-245 1701.5,-233 1701.5,-233 1701.5,-227 1707.5,-221 1713.5,-221 1713.5,-221 1853.5,-221 1853.5,-221 1859.5,-221 1865.5,-227 1865.5,-233 1865.5,-233 1865.5,-245 1865.5,-245 1865.5,-251 1859.5,-257 1853.5,-257"/>
<text text-anchor="middle" x="1783.5" y="-242" font-family="sans" font-size="10.00">select_locus</text>
<text text-anchor="middle" x="1783.5" y="-231" font-family="sans" font-size="10.00">sample: ASC_D07G_P7_D0_hq</text>
</g>
<!-- 31&#45;&gt;6 -->
<g id="edge31" class="edge">
<title>31&#45;&gt;6</title>
<path fill="none" stroke="grey" stroke-width="2" d="M1751.98,-220.82C1733.68,-210.84 1710.43,-198.17 1690.81,-187.47"/>
<polygon fill="grey" stroke="grey" stroke-width="2" points="1692.25,-184.27 1681.79,-182.56 1688.9,-190.42 1692.25,-184.27"/>
</g>
<!-- 46 -->
<g id="node47" class="node">
<title>46</title>
<path fill="none" stroke="#56a9d8" stroke-width="2" stroke-dasharray="5,2" d="M1827,-185C1827,-185 1740,-185 1740,-185 1734,-185 1728,-179 1728,-173 1728,-173 1728,-156 1728,-156 1728,-150 1734,-144 1740,-144 1740,-144 1827,-144 1827,-144 1833,-144 1839,-150 1839,-156 1839,-156 1839,-173 1839,-173 1839,-179 1833,-185 1827,-185"/>
<text text-anchor="middle" x="1783.5" y="-173" font-family="sans" font-size="10.00">cupcake_collapse</text>
<text text-anchor="middle" x="1783.5" y="-162" font-family="sans" font-size="10.00">dataset: ASC_D07G</text>
<text text-anchor="middle" x="1783.5" y="-151" font-family="sans" font-size="10.00">sample: P7_D0</text>
</g>
<!-- 31&#45;&gt;46 -->
<g id="edge76" class="edge">
<title>31&#45;&gt;46</title>
<path fill="none" stroke="grey" stroke-width="2" d="M1783.5,-220.82C1783.5,-213.2 1783.5,-204 1783.5,-195.32"/>
<polygon fill="grey" stroke="grey" stroke-width="2" points="1787,-195.12 1783.5,-185.12 1780,-195.12 1787,-195.12"/>
</g>
<!-- 32 -->
<g id="node33" class="node">
<title>32</title>
<path fill="none" stroke="#59d856" stroke-width="2" stroke-dasharray="5,2" d="M1676,-329C1676,-329 1595,-329 1595,-329 1589,-329 1583,-323 1583,-317 1583,-317 1583,-305 1583,-305 1583,-299 1589,-293 1595,-293 1595,-293 1676,-293 1676,-293 1682,-293 1688,-299 1688,-305 1688,-305 1688,-317 1688,-317 1688,-323 1682,-329 1676,-329"/>
<text text-anchor="middle" x="1635.5" y="-308.5" font-family="sans" font-size="10.00">list_mulitmappers</text>
</g>
<!-- 32&#45;&gt;6 -->
<g id="edge32" class="edge">
<title>32&#45;&gt;6</title>
<path fill="none" stroke="grey" stroke-width="2" d="M1637.28,-292.86C1639.85,-268.09 1644.63,-222.05 1647.68,-192.63"/>
<polygon fill="grey" stroke="grey" stroke-width="2" points="1651.17,-192.93 1648.72,-182.62 1644.21,-192.21 1651.17,-192.93"/>
</g>
<!-- 33 -->
<g id="node34" class="node">
<title>33</title>
<path fill="none" stroke="#5682d8" stroke-width="2" stroke-dasharray="5,2" d="M2174.5,-257C2174.5,-257 2034.5,-257 2034.5,-257 2028.5,-257 2022.5,-251 2022.5,-245 2022.5,-245 2022.5,-233 2022.5,-233 2022.5,-227 2028.5,-221 2034.5,-221 2034.5,-221 2174.5,-221 2174.5,-221 2180.5,-221 2186.5,-227 2186.5,-233 2186.5,-233 2186.5,-245 2186.5,-245 2186.5,-251 2180.5,-257 2174.5,-257"/>
<text text-anchor="middle" x="2104.5" y="-242" font-family="sans" font-size="10.00">select_locus</text>
<text text-anchor="middle" x="2104.5" y="-231" font-family="sans" font-size="10.00">sample: ASC_D07G_P7_D1_hq</text>
</g>
<!-- 33&#45;&gt;7 -->
<g id="edge33" class="edge">
<title>33&#45;&gt;7</title>
<path fill="none" stroke="grey" stroke-width="2" d="M2072.98,-220.82C2054.68,-210.84 2031.43,-198.17 2011.81,-187.47"/>
<polygon fill="grey" stroke="grey" stroke-width="2" points="2013.25,-184.27 2002.79,-182.56 2009.9,-190.42 2013.25,-184.27"/>
</g>
<!-- 47 -->
<g id="node48" class="node">
<title>47</title>
<path fill="none" stroke="#56a9d8" stroke-width="2" stroke-dasharray="5,2" d="M2148,-185C2148,-185 2061,-185 2061,-185 2055,-185 2049,-179 2049,-173 2049,-173 2049,-156 2049,-156 2049,-150 2055,-144 2061,-144 2061,-144 2148,-144 2148,-144 2154,-144 2160,-150 2160,-156 2160,-156 2160,-173 2160,-173 2160,-179 2154,-185 2148,-185"/>
<text text-anchor="middle" x="2104.5" y="-173" font-family="sans" font-size="10.00">cupcake_collapse</text>
<text text-anchor="middle" x="2104.5" y="-162" font-family="sans" font-size="10.00">dataset: ASC_D07G</text>
<text text-anchor="middle" x="2104.5" y="-151" font-family="sans" font-size="10.00">sample: P7_D1</text>
</g>
<!-- 33&#45;&gt;47 -->
<g id="edge77" class="edge">
<title>33&#45;&gt;47</title>
<path fill="none" stroke="grey" stroke-width="2" d="M2104.5,-220.82C2104.5,-213.2 2104.5,-204 2104.5,-195.32"/>
<polygon fill="grey" stroke="grey" stroke-width="2" points="2108,-195.12 2104.5,-185.12 2101,-195.12 2108,-195.12"/>
</g>
<!-- 34 -->
<g id="node35" class="node">
<title>34</title>
<path fill="none" stroke="#59d856" stroke-width="2" stroke-dasharray="5,2" d="M2064,-329C2064,-329 1983,-329 1983,-329 1977,-329 1971,-323 1971,-317 1971,-317 1971,-305 1971,-305 1971,-299 1977,-293 1983,-293 1983,-293 2064,-293 2064,-293 2070,-293 2076,-299 2076,-305 2076,-305 2076,-317 2076,-317 2076,-323 2070,-329 2064,-329"/>
<text text-anchor="middle" x="2023.5" y="-308.5" font-family="sans" font-size="10.00">list_mulitmappers</text>
</g>
<!-- 34&#45;&gt;7 -->
<g id="edge34" class="edge">
<title>34&#45;&gt;7</title>
<path fill="none" stroke="grey" stroke-width="2" d="M2017.33,-292.86C2008.38,-267.98 1991.7,-221.64 1981.13,-192.25"/>
<polygon fill="grey" stroke="grey" stroke-width="2" points="1984.34,-190.85 1977.66,-182.62 1977.75,-193.22 1984.34,-190.85"/>
</g>
<!-- 35 -->
<g id="node36" class="node">
<title>35</title>
<path fill="none" stroke="#5682d8" stroke-width="2" stroke-dasharray="5,2" d="M2528.5,-257C2528.5,-257 2388.5,-257 2388.5,-257 2382.5,-257 2376.5,-251 2376.5,-245 2376.5,-245 2376.5,-233 2376.5,-233 2376.5,-227 2382.5,-221 2388.5,-221 2388.5,-221 2528.5,-221 2528.5,-221 2534.5,-221 2540.5,-227 2540.5,-233 2540.5,-233 2540.5,-245 2540.5,-245 2540.5,-251 2534.5,-257 2528.5,-257"/>
<text text-anchor="middle" x="2458.5" y="-242" font-family="sans" font-size="10.00">select_locus</text>
<text text-anchor="middle" x="2458.5" y="-231" font-family="sans" font-size="10.00">sample: ASC_D07G_P7_D3_hq</text>
</g>
<!-- 35&#45;&gt;8 -->
<g id="edge35" class="edge">
<title>35&#45;&gt;8</title>
<path fill="none" stroke="grey" stroke-width="2" d="M2426.98,-220.82C2408.68,-210.84 2385.43,-198.17 2365.81,-187.47"/>
<polygon fill="grey" stroke="grey" stroke-width="2" points="2367.25,-184.27 2356.79,-182.56 2363.9,-190.42 2367.25,-184.27"/>
</g>
<!-- 48 -->
<g id="node49" class="node">
<title>48</title>
<path fill="none" stroke="#56a9d8" stroke-width="2" stroke-dasharray="5,2" d="M2502,-185C2502,-185 2415,-185 2415,-185 2409,-185 2403,-179 2403,-173 2403,-173 2403,-156 2403,-156 2403,-150 2409,-144 2415,-144 2415,-144 2502,-144 2502,-144 2508,-144 2514,-150 2514,-156 2514,-156 2514,-173 2514,-173 2514,-179 2508,-185 2502,-185"/>
<text text-anchor="middle" x="2458.5" y="-173" font-family="sans" font-size="10.00">cupcake_collapse</text>
<text text-anchor="middle" x="2458.5" y="-162" font-family="sans" font-size="10.00">dataset: ASC_D07G</text>
<text text-anchor="middle" x="2458.5" y="-151" font-family="sans" font-size="10.00">sample: P7_D3</text>
</g>
<!-- 35&#45;&gt;48 -->
<g id="edge78" class="edge">
<title>35&#45;&gt;48</title>
<path fill="none" stroke="grey" stroke-width="2" d="M2458.5,-220.82C2458.5,-213.2 2458.5,-204 2458.5,-195.32"/>
<polygon fill="grey" stroke="grey" stroke-width="2" points="2462,-195.12 2458.5,-185.12 2455,-195.12 2462,-195.12"/>
</g>
<!-- 36 -->
<g id="node37" class="node">
<title>36</title>
<path fill="none" stroke="#59d856" stroke-width="2" stroke-dasharray="5,2" d="M2452,-329C2452,-329 2371,-329 2371,-329 2365,-329 2359,-323 2359,-317 2359,-317 2359,-305 2359,-305 2359,-299 2365,-293 2371,-293 2371,-293 2452,-293 2452,-293 2458,-293 2464,-299 2464,-305 2464,-305 2464,-317 2464,-317 2464,-323 2458,-329 2452,-329"/>
<text text-anchor="middle" x="2411.5" y="-308.5" font-family="sans" font-size="10.00">list_mulitmappers</text>
</g>
<!-- 36&#45;&gt;8 -->
<g id="edge36" class="edge">
<title>36&#45;&gt;8</title>
<path fill="none" stroke="grey" stroke-width="2" d="M2395.19,-292.75C2386.31,-282.79 2375.52,-269.75 2367.5,-257 2354.48,-236.31 2343.15,-210.91 2335.55,-192.13"/>
<polygon fill="grey" stroke="grey" stroke-width="2" points="2338.76,-190.72 2331.83,-182.71 2332.25,-193.3 2338.76,-190.72"/>
</g>
<!-- 37 -->
<g id="node38" class="node">
<title>37</title>
<path fill="none" stroke="#5682d8" stroke-width="2" stroke-dasharray="5,2" d="M2899.5,-257C2899.5,-257 2759.5,-257 2759.5,-257 2753.5,-257 2747.5,-251 2747.5,-245 2747.5,-245 2747.5,-233 2747.5,-233 2747.5,-227 2753.5,-221 2759.5,-221 2759.5,-221 2899.5,-221 2899.5,-221 2905.5,-221 2911.5,-227 2911.5,-233 2911.5,-233 2911.5,-245 2911.5,-245 2911.5,-251 2905.5,-257 2899.5,-257"/>
<text text-anchor="middle" x="2829.5" y="-242" font-family="sans" font-size="10.00">select_locus</text>
<text text-anchor="middle" x="2829.5" y="-231" font-family="sans" font-size="10.00">sample: ASC_D07G_P7_D9_hq</text>
</g>
<!-- 37&#45;&gt;9 -->
<g id="edge37" class="edge">
<title>37&#45;&gt;9</title>
<path fill="none" stroke="grey" stroke-width="2" d="M2797.98,-220.82C2779.68,-210.84 2756.43,-198.17 2736.81,-187.47"/>
<polygon fill="grey" stroke="grey" stroke-width="2" points="2738.25,-184.27 2727.79,-182.56 2734.9,-190.42 2738.25,-184.27"/>
</g>
<!-- 49 -->
<g id="node50" class="node">
<title>49</title>
<path fill="none" stroke="#56a9d8" stroke-width="2" stroke-dasharray="5,2" d="M2873,-185C2873,-185 2786,-185 2786,-185 2780,-185 2774,-179 2774,-173 2774,-173 2774,-156 2774,-156 2774,-150 2780,-144 2786,-144 2786,-144 2873,-144 2873,-144 2879,-144 2885,-150 2885,-156 2885,-156 2885,-173 2885,-173 2885,-179 2879,-185 2873,-185"/>
<text text-anchor="middle" x="2829.5" y="-173" font-family="sans" font-size="10.00">cupcake_collapse</text>
<text text-anchor="middle" x="2829.5" y="-162" font-family="sans" font-size="10.00">dataset: ASC_D07G</text>
<text text-anchor="middle" x="2829.5" y="-151" font-family="sans" font-size="10.00">sample: P7_D9</text>
</g>
<!-- 37&#45;&gt;49 -->
<g id="edge79" class="edge">
<title>37&#45;&gt;49</title>
<path fill="none" stroke="grey" stroke-width="2" d="M2829.5,-220.82C2829.5,-213.2 2829.5,-204 2829.5,-195.32"/>
<polygon fill="grey" stroke="grey" stroke-width="2" points="2833,-195.12 2829.5,-185.12 2826,-195.12 2833,-195.12"/>
</g>
<!-- 38 -->
<g id="node39" class="node">
<title>38</title>
<path fill="none" stroke="#59d856" stroke-width="2" stroke-dasharray="5,2" d="M2840,-329C2840,-329 2759,-329 2759,-329 2753,-329 2747,-323 2747,-317 2747,-317 2747,-305 2747,-305 2747,-299 2753,-293 2759,-293 2759,-293 2840,-293 2840,-293 2846,-293 2852,-299 2852,-305 2852,-305 2852,-317 2852,-317 2852,-323 2846,-329 2840,-329"/>
<text text-anchor="middle" x="2799.5" y="-308.5" font-family="sans" font-size="10.00">list_mulitmappers</text>
</g>
<!-- 38&#45;&gt;9 -->
<g id="edge38" class="edge">
<title>38&#45;&gt;9</title>
<path fill="none" stroke="grey" stroke-width="2" d="M2775.29,-292.9C2763.1,-283.38 2748.76,-270.7 2738.5,-257 2723.67,-237.2 2712.4,-211.32 2705.28,-192.14"/>
<polygon fill="grey" stroke="grey" stroke-width="2" points="2708.51,-190.76 2701.85,-182.52 2701.91,-193.11 2708.51,-190.76"/>
</g>
<!-- 39 -->
<g id="node40" class="node">
<title>39</title>
<path fill="none" stroke="#5682d8" stroke-width="2" stroke-dasharray="5,2" d="M3295.5,-257C3295.5,-257 3135.5,-257 3135.5,-257 3129.5,-257 3123.5,-251 3123.5,-245 3123.5,-245 3123.5,-233 3123.5,-233 3123.5,-227 3129.5,-221 3135.5,-221 3135.5,-221 3295.5,-221 3295.5,-221 3301.5,-221 3307.5,-227 3307.5,-233 3307.5,-233 3307.5,-245 3307.5,-245 3307.5,-251 3301.5,-257 3295.5,-257"/>
<text text-anchor="middle" x="3215.5" y="-242" font-family="sans" font-size="10.00">select_locus</text>
<text text-anchor="middle" x="3215.5" y="-231" font-family="sans" font-size="10.00">sample: ASC_D07G_P7_PROLIF_hq</text>
</g>
<!-- 39&#45;&gt;10 -->
<g id="edge39" class="edge">
<title>39&#45;&gt;10</title>
<path fill="none" stroke="grey" stroke-width="2" d="M3183.98,-220.82C3165.68,-210.84 3142.43,-198.17 3122.81,-187.47"/>
<polygon fill="grey" stroke="grey" stroke-width="2" points="3124.25,-184.27 3113.79,-182.56 3120.9,-190.42 3124.25,-184.27"/>
</g>
<!-- 50 -->
<g id="node51" class="node">
<title>50</title>
<path fill="none" stroke="#56a9d8" stroke-width="2" stroke-dasharray="5,2" d="M3259,-185C3259,-185 3172,-185 3172,-185 3166,-185 3160,-179 3160,-173 3160,-173 3160,-156 3160,-156 3160,-150 3166,-144 3172,-144 3172,-144 3259,-144 3259,-144 3265,-144 3271,-150 3271,-156 3271,-156 3271,-173 3271,-173 3271,-179 3265,-185 3259,-185"/>
<text text-anchor="middle" x="3215.5" y="-173" font-family="sans" font-size="10.00">cupcake_collapse</text>
<text text-anchor="middle" x="3215.5" y="-162" font-family="sans" font-size="10.00">dataset: ASC_D07G</text>
<text text-anchor="middle" x="3215.5" y="-151" font-family="sans" font-size="10.00">sample: P7_PROLIF</text>
</g>
<!-- 39&#45;&gt;50 -->
<g id="edge80" class="edge">
<title>39&#45;&gt;50</title>
<path fill="none" stroke="grey" stroke-width="2" d="M3215.5,-220.82C3215.5,-213.2 3215.5,-204 3215.5,-195.32"/>
<polygon fill="grey" stroke="grey" stroke-width="2" points="3219,-195.12 3215.5,-185.12 3212,-195.12 3219,-195.12"/>
</g>
<!-- 40 -->
<g id="node41" class="node">
<title>40</title>
<path fill="none" stroke="#59d856" stroke-width="2" stroke-dasharray="5,2" d="M3228,-329C3228,-329 3147,-329 3147,-329 3141,-329 3135,-323 3135,-317 3135,-317 3135,-305 3135,-305 3135,-299 3141,-293 3147,-293 3147,-293 3228,-293 3228,-293 3234,-293 3240,-299 3240,-305 3240,-305 3240,-317 3240,-317 3240,-323 3234,-329 3228,-329"/>
<text text-anchor="middle" x="3187.5" y="-308.5" font-family="sans" font-size="10.00">list_mulitmappers</text>
</g>
<!-- 40&#45;&gt;10 -->
<g id="edge40" class="edge">
<title>40&#45;&gt;10</title>
<path fill="none" stroke="grey" stroke-width="2" d="M3155.61,-292.86C3141.35,-283.82 3125.34,-271.58 3114.5,-257 3100.35,-237.97 3092.08,-212.17 3087.51,-192.82"/>
<polygon fill="grey" stroke="grey" stroke-width="2" points="3090.88,-191.84 3085.33,-182.81 3084.03,-193.33 3090.88,-191.84"/>
</g>
<!-- 41&#45;&gt;11 -->
<g id="edge41" class="edge">
<title>41&#45;&gt;11</title>
<path fill="none" stroke="grey" stroke-width="2" d="M369.98,-143.69C374.74,-135.47 380.32,-125.83 385.41,-117.05"/>
<polygon fill="grey" stroke="grey" stroke-width="2" points="388.48,-118.73 390.47,-108.32 382.43,-115.22 388.48,-118.73"/>
</g>
<!-- 42&#45;&gt;12 -->
<g id="edge42" class="edge">
<title>42&#45;&gt;12</title>
<path fill="none" stroke="grey" stroke-width="2" d="M675.98,-143.69C680.74,-135.47 686.32,-125.83 691.41,-117.05"/>
<polygon fill="grey" stroke="grey" stroke-width="2" points="694.48,-118.73 696.47,-108.32 688.43,-115.22 694.48,-118.73"/>
</g>
<!-- 43&#45;&gt;13 -->
<g id="edge43" class="edge">
<title>43&#45;&gt;13</title>
<path fill="none" stroke="grey" stroke-width="2" d="M985.61,-143.69C989.76,-135.56 994.62,-126.03 999.06,-117.33"/>
<polygon fill="grey" stroke="grey" stroke-width="2" points="1002.23,-118.82 1003.66,-108.32 996,-115.64 1002.23,-118.82"/>
</g>
<!-- 44&#45;&gt;14 -->
<g id="edge44" class="edge">
<title>44&#45;&gt;14</title>
<path fill="none" stroke="grey" stroke-width="2" d="M1260.24,-143.69C1263.79,-135.65 1267.95,-126.24 1271.75,-117.61"/>
<polygon fill="grey" stroke="grey" stroke-width="2" points="1275.02,-118.88 1275.86,-108.32 1268.62,-116.05 1275.02,-118.88"/>
</g>
<!-- 45&#45;&gt;15 -->
<g id="edge45" class="edge">
<title>45&#45;&gt;15</title>
<path fill="none" stroke="grey" stroke-width="2" d="M1521.87,-143.69C1523.61,-135.82 1525.63,-126.64 1527.5,-118.17"/>
<polygon fill="grey" stroke="grey" stroke-width="2" points="1530.94,-118.84 1529.68,-108.32 1524.1,-117.33 1530.94,-118.84"/>
</g>
<!-- 46&#45;&gt;16 -->
<g id="edge46" class="edge">
<title>46&#45;&gt;16</title>
<path fill="none" stroke="grey" stroke-width="2" d="M1774.48,-143.69C1770.82,-135.65 1766.54,-126.24 1762.61,-117.61"/>
<polygon fill="grey" stroke="grey" stroke-width="2" points="1765.71,-115.97 1758.38,-108.32 1759.34,-118.87 1765.71,-115.97"/>
</g>
<!-- 47&#45;&gt;17 -->
<g id="edge47" class="edge">
<title>47&#45;&gt;17</title>
<path fill="none" stroke="grey" stroke-width="2" d="M2088.38,-143.69C2081.48,-135.21 2073.35,-125.22 2066.03,-116.23"/>
<polygon fill="grey" stroke="grey" stroke-width="2" points="2068.62,-113.87 2059.59,-108.32 2063.19,-118.28 2068.62,-113.87"/>
</g>
<!-- 48&#45;&gt;18 -->
<g id="edge48" class="edge">
<title>48&#45;&gt;18</title>
<path fill="none" stroke="grey" stroke-width="2" d="M2438.28,-143.69C2429.36,-134.96 2418.8,-124.61 2409.41,-115.4"/>
<polygon fill="grey" stroke="grey" stroke-width="2" points="2411.77,-112.82 2402.18,-108.32 2406.87,-117.82 2411.77,-112.82"/>
</g>
<!-- 49&#45;&gt;19 -->
<g id="edge49" class="edge">
<title>49&#45;&gt;19</title>
<path fill="none" stroke="grey" stroke-width="2" d="M2807.09,-143.69C2797.04,-134.8 2785.1,-124.24 2774.55,-114.92"/>
<polygon fill="grey" stroke="grey" stroke-width="2" points="2776.63,-112.08 2766.82,-108.08 2771.99,-117.32 2776.63,-112.08"/>
</g>
<!-- 50&#45;&gt;20 -->
<g id="edge50" class="edge">
<title>50&#45;&gt;20</title>
<path fill="none" stroke="grey" stroke-width="2" d="M3191.45,-143.69C3180.56,-134.72 3167.6,-124.04 3156.2,-114.65"/>
<polygon fill="grey" stroke="grey" stroke-width="2" points="3158.17,-111.74 3148.23,-108.08 3153.72,-117.14 3158.17,-111.74"/>
</g>
<!-- 51 -->
<g id="node52" class="node">
<title>51</title>
<path fill="none" stroke="#d88556" stroke-width="2" stroke-dasharray="5,2" d="M316,-329C316,-329 93,-329 93,-329 87,-329 81,-323 81,-317 81,-317 81,-305 81,-305 81,-299 87,-293 93,-293 93,-293 316,-293 316,-293 322,-293 328,-299 328,-305 328,-305 328,-317 328,-317 328,-323 322,-329 316,-329"/>
<text text-anchor="middle" x="204.5" y="-314" font-family="sans" font-size="10.00">sam_to_bam</text>
<text text-anchor="middle" x="204.5" y="-303" font-family="sans" font-size="10.00">sample: minimap_output/ASC_D07G_P6_D0_hq</text>
</g>
<!-- 51&#45;&gt;21 -->
<g id="edge51" class="edge">
<title>51&#45;&gt;21</title>
<path fill="none" stroke="grey" stroke-width="2" d="M204.75,-292.7C204.86,-284.98 204.99,-275.71 205.11,-267.11"/>
<polygon fill="grey" stroke="grey" stroke-width="2" points="208.61,-267.15 205.26,-257.1 201.61,-267.05 208.61,-267.15"/>
</g>
<!-- 52 -->
<g id="node53" class="node">
<title>52</title>
<path fill="none" stroke="#56d8a9" stroke-width="2" stroke-dasharray="5,2" d="M146.5,-401C146.5,-401 110.5,-401 110.5,-401 104.5,-401 98.5,-395 98.5,-389 98.5,-389 98.5,-377 98.5,-377 98.5,-371 104.5,-365 110.5,-365 110.5,-365 146.5,-365 146.5,-365 152.5,-365 158.5,-371 158.5,-377 158.5,-377 158.5,-389 158.5,-389 158.5,-395 152.5,-401 146.5,-401"/>
<text text-anchor="middle" x="128.5" y="-380.5" font-family="sans" font-size="10.00">minimap</text>
</g>
<!-- 52&#45;&gt;22 -->
<g id="edge52" class="edge">
<title>52&#45;&gt;22</title>
<path fill="none" stroke="grey" stroke-width="2" d="M104.11,-364.96C92.53,-355.63 79.5,-343.1 71.5,-329 60.75,-310.05 56.07,-285.68 54.03,-267.24"/>
<polygon fill="grey" stroke="grey" stroke-width="2" points="57.51,-266.79 53.12,-257.15 50.54,-267.42 57.51,-266.79"/>
</g>
<!-- 52&#45;&gt;51 -->
<g id="edge81" class="edge">
<title>52&#45;&gt;51</title>
<path fill="none" stroke="grey" stroke-width="2" d="M147.29,-364.7C156.67,-356.05 168.18,-345.45 178.41,-336.03"/>
<polygon fill="grey" stroke="grey" stroke-width="2" points="180.95,-338.45 185.93,-329.1 176.2,-333.3 180.95,-338.45"/>
</g>
<!-- 53 -->
<g id="node54" class="node">
<title>53</title>
<path fill="none" stroke="#d88556" stroke-width="2" stroke-dasharray="5,2" d="M621,-329C621,-329 398,-329 398,-329 392,-329 386,-323 386,-317 386,-317 386,-305 386,-305 386,-299 392,-293 398,-293 398,-293 621,-293 621,-293 627,-293 633,-299 633,-305 633,-305 633,-317 633,-317 633,-323 627,-329 621,-329"/>
<text text-anchor="middle" x="509.5" y="-314" font-family="sans" font-size="10.00">sam_to_bam</text>
<text text-anchor="middle" x="509.5" y="-303" font-family="sans" font-size="10.00">sample: minimap_output/ASC_D07G_P6_D1_hq</text>
</g>
<!-- 53&#45;&gt;23 -->
<g id="edge53" class="edge">
<title>53&#45;&gt;23</title>
<path fill="none" stroke="grey" stroke-width="2" d="M509.99,-292.7C510.21,-284.98 510.48,-275.71 510.73,-267.11"/>
<polygon fill="grey" stroke="grey" stroke-width="2" points="514.22,-267.2 511.01,-257.1 507.23,-267 514.22,-267.2"/>
</g>
<!-- 54 -->
<g id="node55" class="node">
<title>54</title>
<path fill="none" stroke="#56d8a9" stroke-width="2" stroke-dasharray="5,2" d="M489.5,-401C489.5,-401 453.5,-401 453.5,-401 447.5,-401 441.5,-395 441.5,-389 441.5,-389 441.5,-377 441.5,-377 441.5,-371 447.5,-365 453.5,-365 453.5,-365 489.5,-365 489.5,-365 495.5,-365 501.5,-371 501.5,-377 501.5,-377 501.5,-389 501.5,-389 501.5,-395 495.5,-401 489.5,-401"/>
<text text-anchor="middle" x="471.5" y="-380.5" font-family="sans" font-size="10.00">minimap</text>
</g>
<!-- 54&#45;&gt;24 -->
<g id="edge54" class="edge">
<title>54&#45;&gt;24</title>
<path fill="none" stroke="grey" stroke-width="2" d="M441.17,-372.72C419.82,-364.6 392.32,-350.66 376.5,-329 363.46,-311.14 359.31,-286.14 358.22,-267.18"/>
<polygon fill="grey" stroke="grey" stroke-width="2" points="361.71,-266.96 357.88,-257.08 354.71,-267.19 361.71,-266.96"/>
</g>
<!-- 54&#45;&gt;53 -->
<g id="edge83" class="edge">
<title>54&#45;&gt;53</title>
<path fill="none" stroke="grey" stroke-width="2" d="M480.89,-364.7C485.26,-356.64 490.56,-346.89 495.4,-337.98"/>
<polygon fill="grey" stroke="grey" stroke-width="2" points="498.52,-339.56 500.21,-329.1 492.37,-336.22 498.52,-339.56"/>
</g>
<!-- 55 -->
<g id="node56" class="node">
<title>55</title>
<path fill="none" stroke="#d88556" stroke-width="2" stroke-dasharray="5,2" d="M925,-329C925,-329 702,-329 702,-329 696,-329 690,-323 690,-317 690,-317 690,-305 690,-305 690,-299 696,-293 702,-293 702,-293 925,-293 925,-293 931,-293 937,-299 937,-305 937,-305 937,-317 937,-317 937,-323 931,-329 925,-329"/>
<text text-anchor="middle" x="813.5" y="-314" font-family="sans" font-size="10.00">sam_to_bam</text>
<text text-anchor="middle" x="813.5" y="-303" font-family="sans" font-size="10.00">sample: minimap_output/ASC_D07G_P6_D3_hq</text>
</g>
<!-- 55&#45;&gt;25 -->
<g id="edge55" class="edge">
<title>55&#45;&gt;25</title>
<path fill="none" stroke="grey" stroke-width="2" d="M814.49,-292.7C814.93,-284.98 815.46,-275.71 815.95,-267.11"/>
<polygon fill="grey" stroke="grey" stroke-width="2" points="819.45,-267.29 816.52,-257.1 812.46,-266.89 819.45,-267.29"/>
</g>
<!-- 56 -->
<g id="node57" class="node">
<title>56</title>
<path fill="none" stroke="#56d8a9" stroke-width="2" stroke-dasharray="5,2" d="M717.5,-401C717.5,-401 681.5,-401 681.5,-401 675.5,-401 669.5,-395 669.5,-389 669.5,-389 669.5,-377 669.5,-377 669.5,-371 675.5,-365 681.5,-365 681.5,-365 717.5,-365 717.5,-365 723.5,-365 729.5,-371 729.5,-377 729.5,-377 729.5,-389 729.5,-389 729.5,-395 723.5,-401 717.5,-401"/>
<text text-anchor="middle" x="699.5" y="-380.5" font-family="sans" font-size="10.00">minimap</text>
</g>
<!-- 56&#45;&gt;26 -->
<g id="edge56" class="edge">
<title>56&#45;&gt;26</title>
<path fill="none" stroke="grey" stroke-width="2" d="M692.42,-364.57C688.48,-354.34 683.73,-341.09 680.5,-329 675.04,-308.56 670.89,-284.97 668.19,-267.21"/>
<polygon fill="grey" stroke="grey" stroke-width="2" points="671.64,-266.64 666.73,-257.25 664.72,-267.65 671.64,-266.64"/>
</g>
<!-- 56&#45;&gt;55 -->
<g id="edge85" class="edge">
<title>56&#45;&gt;55</title>
<path fill="none" stroke="grey" stroke-width="2" d="M727.39,-364.88C742.29,-355.72 760.83,-344.34 776.88,-334.48"/>
<polygon fill="grey" stroke="grey" stroke-width="2" points="778.81,-337.41 785.51,-329.19 775.15,-331.44 778.81,-337.41"/>
</g>
<!-- 57 -->
<g id="node58" class="node">
<title>57</title>
<path fill="none" stroke="#d88556" stroke-width="2" stroke-dasharray="5,2" d="M1229,-329C1229,-329 1006,-329 1006,-329 1000,-329 994,-323 994,-317 994,-317 994,-305 994,-305 994,-299 1000,-293 1006,-293 1006,-293 1229,-293 1229,-293 1235,-293 1241,-299 1241,-305 1241,-305 1241,-317 1241,-317 1241,-323 1235,-329 1229,-329"/>
<text text-anchor="middle" x="1117.5" y="-314" font-family="sans" font-size="10.00">sam_to_bam</text>
<text text-anchor="middle" x="1117.5" y="-303" font-family="sans" font-size="10.00">sample: minimap_output/ASC_D07G_P6_D9_hq</text>
</g>
<!-- 57&#45;&gt;27 -->
<g id="edge57" class="edge">
<title>57&#45;&gt;27</title>
<path fill="none" stroke="grey" stroke-width="2" d="M1118.98,-292.7C1119.64,-284.98 1120.44,-275.71 1121.18,-267.11"/>
<polygon fill="grey" stroke="grey" stroke-width="2" points="1124.67,-267.37 1122.03,-257.1 1117.69,-266.77 1124.67,-267.37"/>
</g>
<!-- 58 -->
<g id="node59" class="node">
<title>58</title>
<path fill="none" stroke="#56d8a9" stroke-width="2" stroke-dasharray="5,2" d="M1039.5,-401C1039.5,-401 1003.5,-401 1003.5,-401 997.5,-401 991.5,-395 991.5,-389 991.5,-389 991.5,-377 991.5,-377 991.5,-371 997.5,-365 1003.5,-365 1003.5,-365 1039.5,-365 1039.5,-365 1045.5,-365 1051.5,-371 1051.5,-377 1051.5,-377 1051.5,-389 1051.5,-389 1051.5,-395 1045.5,-401 1039.5,-401"/>
<text text-anchor="middle" x="1021.5" y="-380.5" font-family="sans" font-size="10.00">minimap</text>
</g>
<!-- 58&#45;&gt;28 -->
<g id="edge58" class="edge">
<title>58&#45;&gt;28</title>
<path fill="none" stroke="grey" stroke-width="2" d="M1006.28,-364.55C998.54,-354.75 989.7,-341.91 984.5,-329 976.53,-309.2 973.08,-285.22 971.59,-267.15"/>
<polygon fill="grey" stroke="grey" stroke-width="2" points="975.07,-266.75 970.91,-257 968.09,-267.21 975.07,-266.75"/>
</g>
<!-- 58&#45;&gt;57 -->
<g id="edge87" class="edge">
<title>58&#45;&gt;57</title>
<path fill="none" stroke="grey" stroke-width="2" d="M1045.23,-364.7C1057.44,-355.8 1072.49,-344.82 1085.68,-335.2"/>
<polygon fill="grey" stroke="grey" stroke-width="2" points="1088.02,-337.82 1094.04,-329.1 1083.9,-332.17 1088.02,-337.82"/>
</g>
<!-- 59 -->
<g id="node60" class="node">
<title>59</title>
<path fill="none" stroke="#d88556" stroke-width="2" stroke-dasharray="5,2" d="M1553,-329C1553,-329 1310,-329 1310,-329 1304,-329 1298,-323 1298,-317 1298,-317 1298,-305 1298,-305 1298,-299 1304,-293 1310,-293 1310,-293 1553,-293 1553,-293 1559,-293 1565,-299 1565,-305 1565,-305 1565,-317 1565,-317 1565,-323 1559,-329 1553,-329"/>
<text text-anchor="middle" x="1431.5" y="-314" font-family="sans" font-size="10.00">sam_to_bam</text>
<text text-anchor="middle" x="1431.5" y="-303" font-family="sans" font-size="10.00">sample: minimap_output/ASC_D07G_P6_PROLIF_hq</text>
</g>
<!-- 59&#45;&gt;29 -->
<g id="edge59" class="edge">
<title>59&#45;&gt;29</title>
<path fill="none" stroke="grey" stroke-width="2" d="M1433.48,-292.7C1434.36,-284.98 1435.42,-275.71 1436.4,-267.11"/>
<polygon fill="grey" stroke="grey" stroke-width="2" points="1439.89,-267.44 1437.55,-257.1 1432.93,-266.64 1439.89,-267.44"/>
</g>
<!-- 60 -->
<g id="node61" class="node">
<title>60</title>
<path fill="none" stroke="#56d8a9" stroke-width="2" stroke-dasharray="5,2" d="M1368.5,-401C1368.5,-401 1332.5,-401 1332.5,-401 1326.5,-401 1320.5,-395 1320.5,-389 1320.5,-389 1320.5,-377 1320.5,-377 1320.5,-371 1326.5,-365 1332.5,-365 1332.5,-365 1368.5,-365 1368.5,-365 1374.5,-365 1380.5,-371 1380.5,-377 1380.5,-377 1380.5,-389 1380.5,-389 1380.5,-395 1374.5,-401 1368.5,-401"/>
<text text-anchor="middle" x="1350.5" y="-380.5" font-family="sans" font-size="10.00">minimap</text>
</g>
<!-- 60&#45;&gt;30 -->
<g id="edge60" class="edge">
<title>60&#45;&gt;30</title>
<path fill="none" stroke="grey" stroke-width="2" d="M1322.52,-364.96C1310.06,-355.87 1296.43,-343.55 1288.5,-329 1278.21,-310.11 1275.53,-285.74 1275.24,-267.28"/>
<polygon fill="grey" stroke="grey" stroke-width="2" points="1278.74,-267.2 1275.31,-257.18 1271.74,-267.16 1278.74,-267.2"/>
</g>
<!-- 60&#45;&gt;59 -->
<g id="edge89" class="edge">
<title>60&#45;&gt;59</title>
<path fill="none" stroke="grey" stroke-width="2" d="M1370.52,-364.7C1380.63,-355.97 1393.04,-345.24 1404.02,-335.75"/>
<polygon fill="grey" stroke="grey" stroke-width="2" points="1406.43,-338.29 1411.71,-329.1 1401.85,-332.99 1406.43,-338.29"/>
</g>
<!-- 61 -->
<g id="node62" class="node">
<title>61</title>
<path fill="none" stroke="#d88556" stroke-width="2" stroke-dasharray="5,2" d="M1941,-329C1941,-329 1718,-329 1718,-329 1712,-329 1706,-323 1706,-317 1706,-317 1706,-305 1706,-305 1706,-299 1712,-293 1718,-293 1718,-293 1941,-293 1941,-293 1947,-293 1953,-299 1953,-305 1953,-305 1953,-317 1953,-317 1953,-323 1947,-329 1941,-329"/>
<text text-anchor="middle" x="1829.5" y="-314" font-family="sans" font-size="10.00">sam_to_bam</text>
<text text-anchor="middle" x="1829.5" y="-303" font-family="sans" font-size="10.00">sample: minimap_output/ASC_D07G_P7_D0_hq</text>
</g>
<!-- 61&#45;&gt;31 -->
<g id="edge61" class="edge">
<title>61&#45;&gt;31</title>
<path fill="none" stroke="grey" stroke-width="2" d="M1818.13,-292.7C1812.78,-284.56 1806.3,-274.69 1800.39,-265.7"/>
<polygon fill="grey" stroke="grey" stroke-width="2" points="1803.16,-263.54 1794.74,-257.1 1797.31,-267.38 1803.16,-263.54"/>
</g>
<!-- 62 -->
<g id="node63" class="node">
<title>62</title>
<path fill="none" stroke="#56d8a9" stroke-width="2" stroke-dasharray="5,2" d="M1750.5,-401C1750.5,-401 1714.5,-401 1714.5,-401 1708.5,-401 1702.5,-395 1702.5,-389 1702.5,-389 1702.5,-377 1702.5,-377 1702.5,-371 1708.5,-365 1714.5,-365 1714.5,-365 1750.5,-365 1750.5,-365 1756.5,-365 1762.5,-371 1762.5,-377 1762.5,-377 1762.5,-389 1762.5,-389 1762.5,-395 1756.5,-401 1750.5,-401"/>
<text text-anchor="middle" x="1732.5" y="-380.5" font-family="sans" font-size="10.00">minimap</text>
</g>
<!-- 62&#45;&gt;32 -->
<g id="edge62" class="edge">
<title>62&#45;&gt;32</title>
<path fill="none" stroke="grey" stroke-width="2" d="M1708.52,-364.7C1696.19,-355.8 1680.98,-344.82 1667.65,-335.2"/>
<polygon fill="grey" stroke="grey" stroke-width="2" points="1669.36,-332.12 1659.2,-329.1 1665.26,-337.79 1669.36,-332.12"/>
</g>
<!-- 62&#45;&gt;61 -->
<g id="edge91" class="edge">
<title>62&#45;&gt;61</title>
<path fill="none" stroke="grey" stroke-width="2" d="M1756.48,-364.7C1768.81,-355.8 1784.02,-344.82 1797.35,-335.2"/>
<polygon fill="grey" stroke="grey" stroke-width="2" points="1799.74,-337.79 1805.8,-329.1 1795.64,-332.12 1799.74,-337.79"/>
</g>
<!-- 63 -->
<g id="node64" class="node">
<title>63</title>
<path fill="none" stroke="#d88556" stroke-width="2" stroke-dasharray="5,2" d="M2329,-329C2329,-329 2106,-329 2106,-329 2100,-329 2094,-323 2094,-317 2094,-317 2094,-305 2094,-305 2094,-299 2100,-293 2106,-293 2106,-293 2329,-293 2329,-293 2335,-293 2341,-299 2341,-305 2341,-305 2341,-317 2341,-317 2341,-323 2335,-329 2329,-329"/>
<text text-anchor="middle" x="2217.5" y="-314" font-family="sans" font-size="10.00">sam_to_bam</text>
<text text-anchor="middle" x="2217.5" y="-303" font-family="sans" font-size="10.00">sample: minimap_output/ASC_D07G_P7_D1_hq</text>
</g>
<!-- 63&#45;&gt;33 -->
<g id="edge63" class="edge">
<title>63&#45;&gt;33</title>
<path fill="none" stroke="grey" stroke-width="2" d="M2189.86,-292.88C2175.08,-283.72 2156.71,-272.34 2140.8,-262.48"/>
<polygon fill="grey" stroke="grey" stroke-width="2" points="2142.59,-259.48 2132.25,-257.19 2138.91,-265.43 2142.59,-259.48"/>
</g>
<!-- 64 -->
<g id="node65" class="node">
<title>64</title>
<path fill="none" stroke="#56d8a9" stroke-width="2" stroke-dasharray="5,2" d="M2138.5,-401C2138.5,-401 2102.5,-401 2102.5,-401 2096.5,-401 2090.5,-395 2090.5,-389 2090.5,-389 2090.5,-377 2090.5,-377 2090.5,-371 2096.5,-365 2102.5,-365 2102.5,-365 2138.5,-365 2138.5,-365 2144.5,-365 2150.5,-371 2150.5,-377 2150.5,-377 2150.5,-389 2150.5,-389 2150.5,-395 2144.5,-401 2138.5,-401"/>
<text text-anchor="middle" x="2120.5" y="-380.5" font-family="sans" font-size="10.00">minimap</text>
</g>
<!-- 64&#45;&gt;34 -->
<g id="edge64" class="edge">
<title>64&#45;&gt;34</title>
<path fill="none" stroke="grey" stroke-width="2" d="M2096.52,-364.7C2084.19,-355.8 2068.98,-344.82 2055.65,-335.2"/>
<polygon fill="grey" stroke="grey" stroke-width="2" points="2057.36,-332.12 2047.2,-329.1 2053.26,-337.79 2057.36,-332.12"/>
</g>
<!-- 64&#45;&gt;63 -->
<g id="edge93" class="edge">
<title>64&#45;&gt;63</title>
<path fill="none" stroke="grey" stroke-width="2" d="M2144.48,-364.7C2156.81,-355.8 2172.02,-344.82 2185.35,-335.2"/>
<polygon fill="grey" stroke="grey" stroke-width="2" points="2187.74,-337.79 2193.8,-329.1 2183.64,-332.12 2187.74,-337.79"/>
</g>
<!-- 65 -->
<g id="node66" class="node">
<title>65</title>
<path fill="none" stroke="#d88556" stroke-width="2" stroke-dasharray="5,2" d="M2717,-329C2717,-329 2494,-329 2494,-329 2488,-329 2482,-323 2482,-317 2482,-317 2482,-305 2482,-305 2482,-299 2488,-293 2494,-293 2494,-293 2717,-293 2717,-293 2723,-293 2729,-299 2729,-305 2729,-305 2729,-317 2729,-317 2729,-323 2723,-329 2717,-329"/>
<text text-anchor="middle" x="2605.5" y="-314" font-family="sans" font-size="10.00">sam_to_bam</text>
<text text-anchor="middle" x="2605.5" y="-303" font-family="sans" font-size="10.00">sample: minimap_output/ASC_D07G_P7_D3_hq</text>
</g>
<!-- 65&#45;&gt;35 -->
<g id="edge65" class="edge">
<title>65&#45;&gt;35</title>
<path fill="none" stroke="grey" stroke-width="2" d="M2569.54,-292.88C2549.62,-283.39 2524.68,-271.51 2503.48,-261.42"/>
<polygon fill="grey" stroke="grey" stroke-width="2" points="2504.88,-258.21 2494.34,-257.07 2501.87,-264.53 2504.88,-258.21"/>
</g>
<!-- 66 -->
<g id="node67" class="node">
<title>66</title>
<path fill="none" stroke="#56d8a9" stroke-width="2" stroke-dasharray="5,2" d="M2526.5,-401C2526.5,-401 2490.5,-401 2490.5,-401 2484.5,-401 2478.5,-395 2478.5,-389 2478.5,-389 2478.5,-377 2478.5,-377 2478.5,-371 2484.5,-365 2490.5,-365 2490.5,-365 2526.5,-365 2526.5,-365 2532.5,-365 2538.5,-371 2538.5,-377 2538.5,-377 2538.5,-389 2538.5,-389 2538.5,-395 2532.5,-401 2526.5,-401"/>
<text text-anchor="middle" x="2508.5" y="-380.5" font-family="sans" font-size="10.00">minimap</text>
</g>
<!-- 66&#45;&gt;36 -->
<g id="edge66" class="edge">
<title>66&#45;&gt;36</title>
<path fill="none" stroke="grey" stroke-width="2" d="M2484.52,-364.7C2472.19,-355.8 2456.98,-344.82 2443.65,-335.2"/>
<polygon fill="grey" stroke="grey" stroke-width="2" points="2445.36,-332.12 2435.2,-329.1 2441.26,-337.79 2445.36,-332.12"/>
</g>
<!-- 66&#45;&gt;65 -->
<g id="edge95" class="edge">
<title>66&#45;&gt;65</title>
<path fill="none" stroke="grey" stroke-width="2" d="M2532.48,-364.7C2544.81,-355.8 2560.02,-344.82 2573.35,-335.2"/>
<polygon fill="grey" stroke="grey" stroke-width="2" points="2575.74,-337.79 2581.8,-329.1 2571.64,-332.12 2575.74,-337.79"/>
</g>
<!-- 67 -->
<g id="node68" class="node">
<title>67</title>
<path fill="none" stroke="#d88556" stroke-width="2" stroke-dasharray="5,2" d="M3105,-329C3105,-329 2882,-329 2882,-329 2876,-329 2870,-323 2870,-317 2870,-317 2870,-305 2870,-305 2870,-299 2876,-293 2882,-293 2882,-293 3105,-293 3105,-293 3111,-293 3117,-299 3117,-305 3117,-305 3117,-317 3117,-317 3117,-323 3111,-329 3105,-329"/>
<text text-anchor="middle" x="2993.5" y="-314" font-family="sans" font-size="10.00">sam_to_bam</text>
<text text-anchor="middle" x="2993.5" y="-303" font-family="sans" font-size="10.00">sample: minimap_output/ASC_D07G_P7_D9_hq</text>
</g>
<!-- 67&#45;&gt;37 -->
<g id="edge67" class="edge">
<title>67&#45;&gt;37</title>
<path fill="none" stroke="grey" stroke-width="2" d="M2953.38,-292.88C2930.86,-283.26 2902.58,-271.19 2878.73,-261.01"/>
<polygon fill="grey" stroke="grey" stroke-width="2" points="2880.06,-257.77 2869.49,-257.07 2877.31,-264.21 2880.06,-257.77"/>
</g>
<!-- 68 -->
<g id="node69" class="node">
<title>68</title>
<path fill="none" stroke="#56d8a9" stroke-width="2" stroke-dasharray="5,2" d="M2914.5,-401C2914.5,-401 2878.5,-401 2878.5,-401 2872.5,-401 2866.5,-395 2866.5,-389 2866.5,-389 2866.5,-377 2866.5,-377 2866.5,-371 2872.5,-365 2878.5,-365 2878.5,-365 2914.5,-365 2914.5,-365 2920.5,-365 2926.5,-371 2926.5,-377 2926.5,-377 2926.5,-389 2926.5,-389 2926.5,-395 2920.5,-401 2914.5,-401"/>
<text text-anchor="middle" x="2896.5" y="-380.5" font-family="sans" font-size="10.00">minimap</text>
</g>
<!-- 68&#45;&gt;38 -->
<g id="edge68" class="edge">
<title>68&#45;&gt;38</title>
<path fill="none" stroke="grey" stroke-width="2" d="M2872.52,-364.7C2860.19,-355.8 2844.98,-344.82 2831.65,-335.2"/>
<polygon fill="grey" stroke="grey" stroke-width="2" points="2833.36,-332.12 2823.2,-329.1 2829.26,-337.79 2833.36,-332.12"/>
</g>
<!-- 68&#45;&gt;67 -->
<g id="edge97" class="edge">
<title>68&#45;&gt;67</title>
<path fill="none" stroke="grey" stroke-width="2" d="M2920.48,-364.7C2932.81,-355.8 2948.02,-344.82 2961.35,-335.2"/>
<polygon fill="grey" stroke="grey" stroke-width="2" points="2963.74,-337.79 2969.8,-329.1 2959.64,-332.12 2963.74,-337.79"/>
</g>
<!-- 69 -->
<g id="node70" class="node">
<title>69</title>
<path fill="none" stroke="#d88556" stroke-width="2" stroke-dasharray="5,2" d="M3513,-329C3513,-329 3270,-329 3270,-329 3264,-329 3258,-323 3258,-317 3258,-317 3258,-305 3258,-305 3258,-299 3264,-293 3270,-293 3270,-293 3513,-293 3513,-293 3519,-293 3525,-299 3525,-305 3525,-305 3525,-317 3525,-317 3525,-323 3519,-329 3513,-329"/>
<text text-anchor="middle" x="3391.5" y="-314" font-family="sans" font-size="10.00">sam_to_bam</text>
<text text-anchor="middle" x="3391.5" y="-303" font-family="sans" font-size="10.00">sample: minimap_output/ASC_D07G_P7_PROLIF_hq</text>
</g>
<!-- 69&#45;&gt;39 -->
<g id="edge69" class="edge">
<title>69&#45;&gt;39</title>
<path fill="none" stroke="grey" stroke-width="2" d="M3348.45,-292.88C3324.17,-283.22 3293.66,-271.09 3267.99,-260.88"/>
<polygon fill="grey" stroke="grey" stroke-width="2" points="3269,-257.51 3258.41,-257.07 3266.41,-264.02 3269,-257.51"/>
</g>
<!-- 70 -->
<g id="node71" class="node">
<title>70</title>
<path fill="none" stroke="#56d8a9" stroke-width="2" stroke-dasharray="5,2" d="M3307.5,-401C3307.5,-401 3271.5,-401 3271.5,-401 3265.5,-401 3259.5,-395 3259.5,-389 3259.5,-389 3259.5,-377 3259.5,-377 3259.5,-371 3265.5,-365 3271.5,-365 3271.5,-365 3307.5,-365 3307.5,-365 3313.5,-365 3319.5,-371 3319.5,-377 3319.5,-377 3319.5,-389 3319.5,-389 3319.5,-395 3313.5,-401 3307.5,-401"/>
<text text-anchor="middle" x="3289.5" y="-380.5" font-family="sans" font-size="10.00">minimap</text>
</g>
<!-- 70&#45;&gt;40 -->
<g id="edge70" class="edge">
<title>70&#45;&gt;40</title>
<path fill="none" stroke="grey" stroke-width="2" d="M3264.55,-364.88C3251.46,-355.89 3235.24,-344.76 3221.06,-335.03"/>
<polygon fill="grey" stroke="grey" stroke-width="2" points="3222.77,-331.96 3212.55,-329.19 3218.81,-337.73 3222.77,-331.96"/>
</g>
<!-- 70&#45;&gt;69 -->
<g id="edge99" class="edge">
<title>70&#45;&gt;69</title>
<path fill="none" stroke="grey" stroke-width="2" d="M3314.45,-364.88C3327.54,-355.89 3343.76,-344.76 3357.94,-335.03"/>
<polygon fill="grey" stroke="grey" stroke-width="2" points="3360.19,-337.73 3366.45,-329.19 3356.23,-331.96 3360.19,-337.73"/>
</g>
<!-- 71 -->
<g id="node72" class="node">
<title>71</title>
<path fill="none" stroke="#d6d856" stroke-width="2" stroke-dasharray="5,2" d="M198.5,-473C198.5,-473 58.5,-473 58.5,-473 52.5,-473 46.5,-467 46.5,-461 46.5,-461 46.5,-449 46.5,-449 46.5,-443 52.5,-437 58.5,-437 58.5,-437 198.5,-437 198.5,-437 204.5,-437 210.5,-443 210.5,-449 210.5,-449 210.5,-461 210.5,-461 210.5,-467 204.5,-473 198.5,-473"/>
<text text-anchor="middle" x="128.5" y="-458" font-family="sans" font-size="10.00">format_fastq_for_sam</text>
<text text-anchor="middle" x="128.5" y="-447" font-family="sans" font-size="10.00">sample: ASC_D07G_P6_D0_hq</text>
</g>
<!-- 71&#45;&gt;52 -->
<g id="edge82" class="edge">
<title>71&#45;&gt;52</title>
<path fill="none" stroke="grey" stroke-width="2" d="M128.5,-436.7C128.5,-428.98 128.5,-419.71 128.5,-411.11"/>
<polygon fill="grey" stroke="grey" stroke-width="2" points="132,-411.1 128.5,-401.1 125,-411.1 132,-411.1"/>
</g>
<!-- 72 -->
<g id="node73" class="node">
<title>72</title>
<path fill="none" stroke="#d6d856" stroke-width="2" stroke-dasharray="5,2" d="M541.5,-473C541.5,-473 401.5,-473 401.5,-473 395.5,-473 389.5,-467 389.5,-461 389.5,-461 389.5,-449 389.5,-449 389.5,-443 395.5,-437 401.5,-437 401.5,-437 541.5,-437 541.5,-437 547.5,-437 553.5,-443 553.5,-449 553.5,-449 553.5,-461 553.5,-461 553.5,-467 547.5,-473 541.5,-473"/>
<text text-anchor="middle" x="471.5" y="-458" font-family="sans" font-size="10.00">format_fastq_for_sam</text>
<text text-anchor="middle" x="471.5" y="-447" font-family="sans" font-size="10.00">sample: ASC_D07G_P6_D1_hq</text>
</g>
<!-- 72&#45;&gt;54 -->
<g id="edge84" class="edge">
<title>72&#45;&gt;54</title>
<path fill="none" stroke="grey" stroke-width="2" d="M471.5,-436.7C471.5,-428.98 471.5,-419.71 471.5,-411.11"/>
<polygon fill="grey" stroke="grey" stroke-width="2" points="475,-411.1 471.5,-401.1 468,-411.1 475,-411.1"/>
</g>
<!-- 73 -->
<g id="node74" class="node">
<title>73</title>
<path fill="none" stroke="#d6d856" stroke-width="2" stroke-dasharray="5,2" d="M769.5,-473C769.5,-473 629.5,-473 629.5,-473 623.5,-473 617.5,-467 617.5,-461 617.5,-461 617.5,-449 617.5,-449 617.5,-443 623.5,-437 629.5,-437 629.5,-437 769.5,-437 769.5,-437 775.5,-437 781.5,-443 781.5,-449 781.5,-449 781.5,-461 781.5,-461 781.5,-467 775.5,-473 769.5,-473"/>
<text text-anchor="middle" x="699.5" y="-458" font-family="sans" font-size="10.00">format_fastq_for_sam</text>
<text text-anchor="middle" x="699.5" y="-447" font-family="sans" font-size="10.00">sample: ASC_D07G_P6_D3_hq</text>
</g>
<!-- 73&#45;&gt;56 -->
<g id="edge86" class="edge">
<title>73&#45;&gt;56</title>
<path fill="none" stroke="grey" stroke-width="2" d="M699.5,-436.7C699.5,-428.98 699.5,-419.71 699.5,-411.11"/>
<polygon fill="grey" stroke="grey" stroke-width="2" points="703,-411.1 699.5,-401.1 696,-411.1 703,-411.1"/>
</g>
<!-- 74 -->
<g id="node75" class="node">
<title>74</title>
<path fill="none" stroke="#d6d856" stroke-width="2" stroke-dasharray="5,2" d="M1091.5,-473C1091.5,-473 951.5,-473 951.5,-473 945.5,-473 939.5,-467 939.5,-461 939.5,-461 939.5,-449 939.5,-449 939.5,-443 945.5,-437 951.5,-437 951.5,-437 1091.5,-437 1091.5,-437 1097.5,-437 1103.5,-443 1103.5,-449 1103.5,-449 1103.5,-461 1103.5,-461 1103.5,-467 1097.5,-473 1091.5,-473"/>
<text text-anchor="middle" x="1021.5" y="-458" font-family="sans" font-size="10.00">format_fastq_for_sam</text>
<text text-anchor="middle" x="1021.5" y="-447" font-family="sans" font-size="10.00">sample: ASC_D07G_P6_D9_hq</text>
</g>
<!-- 74&#45;&gt;58 -->
<g id="edge88" class="edge">
<title>74&#45;&gt;58</title>
<path fill="none" stroke="grey" stroke-width="2" d="M1021.5,-436.7C1021.5,-428.98 1021.5,-419.71 1021.5,-411.11"/>
<polygon fill="grey" stroke="grey" stroke-width="2" points="1025,-411.1 1021.5,-401.1 1018,-411.1 1025,-411.1"/>
</g>
<!-- 75 -->
<g id="node76" class="node">
<title>75</title>
<path fill="none" stroke="#d6d856" stroke-width="2" stroke-dasharray="5,2" d="M1430.5,-473C1430.5,-473 1270.5,-473 1270.5,-473 1264.5,-473 1258.5,-467 1258.5,-461 1258.5,-461 1258.5,-449 1258.5,-449 1258.5,-443 1264.5,-437 1270.5,-437 1270.5,-437 1430.5,-437 1430.5,-437 1436.5,-437 1442.5,-443 1442.5,-449 1442.5,-449 1442.5,-461 1442.5,-461 1442.5,-467 1436.5,-473 1430.5,-473"/>
<text text-anchor="middle" x="1350.5" y="-458" font-family="sans" font-size="10.00">format_fastq_for_sam</text>
<text text-anchor="middle" x="1350.5" y="-447" font-family="sans" font-size="10.00">sample: ASC_D07G_P6_PROLIF_hq</text>
</g>
<!-- 75&#45;&gt;60 -->
<g id="edge90" class="edge">
<title>75&#45;&gt;60</title>
<path fill="none" stroke="grey" stroke-width="2" d="M1350.5,-436.7C1350.5,-428.98 1350.5,-419.71 1350.5,-411.11"/>
<polygon fill="grey" stroke="grey" stroke-width="2" points="1354,-411.1 1350.5,-401.1 1347,-411.1 1354,-411.1"/>
</g>
<!-- 76 -->
<g id="node77" class="node">
<title>76</title>
<path fill="none" stroke="#d6d856" stroke-width="2" stroke-dasharray="5,2" d="M1802.5,-473C1802.5,-473 1662.5,-473 1662.5,-473 1656.5,-473 1650.5,-467 1650.5,-461 1650.5,-461 1650.5,-449 1650.5,-449 1650.5,-443 1656.5,-437 1662.5,-437 1662.5,-437 1802.5,-437 1802.5,-437 1808.5,-437 1814.5,-443 1814.5,-449 1814.5,-449 1814.5,-461 1814.5,-461 1814.5,-467 1808.5,-473 1802.5,-473"/>
<text text-anchor="middle" x="1732.5" y="-458" font-family="sans" font-size="10.00">format_fastq_for_sam</text>
<text text-anchor="middle" x="1732.5" y="-447" font-family="sans" font-size="10.00">sample: ASC_D07G_P7_D0_hq</text>
</g>
<!-- 76&#45;&gt;62 -->
<g id="edge92" class="edge">
<title>76&#45;&gt;62</title>
<path fill="none" stroke="grey" stroke-width="2" d="M1732.5,-436.7C1732.5,-428.98 1732.5,-419.71 1732.5,-411.11"/>
<polygon fill="grey" stroke="grey" stroke-width="2" points="1736,-411.1 1732.5,-401.1 1729,-411.1 1736,-411.1"/>
</g>
<!-- 77 -->
<g id="node78" class="node">
<title>77</title>
<path fill="none" stroke="#d6d856" stroke-width="2" stroke-dasharray="5,2" d="M2190.5,-473C2190.5,-473 2050.5,-473 2050.5,-473 2044.5,-473 2038.5,-467 2038.5,-461 2038.5,-461 2038.5,-449 2038.5,-449 2038.5,-443 2044.5,-437 2050.5,-437 2050.5,-437 2190.5,-437 2190.5,-437 2196.5,-437 2202.5,-443 2202.5,-449 2202.5,-449 2202.5,-461 2202.5,-461 2202.5,-467 2196.5,-473 2190.5,-473"/>
<text text-anchor="middle" x="2120.5" y="-458" font-family="sans" font-size="10.00">format_fastq_for_sam</text>
<text text-anchor="middle" x="2120.5" y="-447" font-family="sans" font-size="10.00">sample: ASC_D07G_P7_D1_hq</text>
</g>
<!-- 77&#45;&gt;64 -->
<g id="edge94" class="edge">
<title>77&#45;&gt;64</title>
<path fill="none" stroke="grey" stroke-width="2" d="M2120.5,-436.7C2120.5,-428.98 2120.5,-419.71 2120.5,-411.11"/>
<polygon fill="grey" stroke="grey" stroke-width="2" points="2124,-411.1 2120.5,-401.1 2117,-411.1 2124,-411.1"/>
</g>
<!-- 78 -->
<g id="node79" class="node">
<title>78</title>
<path fill="none" stroke="#d6d856" stroke-width="2" stroke-dasharray="5,2" d="M2578.5,-473C2578.5,-473 2438.5,-473 2438.5,-473 2432.5,-473 2426.5,-467 2426.5,-461 2426.5,-461 2426.5,-449 2426.5,-449 2426.5,-443 2432.5,-437 2438.5,-437 2438.5,-437 2578.5,-437 2578.5,-437 2584.5,-437 2590.5,-443 2590.5,-449 2590.5,-449 2590.5,-461 2590.5,-461 2590.5,-467 2584.5,-473 2578.5,-473"/>
<text text-anchor="middle" x="2508.5" y="-458" font-family="sans" font-size="10.00">format_fastq_for_sam</text>
<text text-anchor="middle" x="2508.5" y="-447" font-family="sans" font-size="10.00">sample: ASC_D07G_P7_D3_hq</text>
</g>
<!-- 78&#45;&gt;66 -->
<g id="edge96" class="edge">
<title>78&#45;&gt;66</title>
<path fill="none" stroke="grey" stroke-width="2" d="M2508.5,-436.7C2508.5,-428.98 2508.5,-419.71 2508.5,-411.11"/>
<polygon fill="grey" stroke="grey" stroke-width="2" points="2512,-411.1 2508.5,-401.1 2505,-411.1 2512,-411.1"/>
</g>
<!-- 79 -->
<g id="node80" class="node">
<title>79</title>
<path fill="none" stroke="#d6d856" stroke-width="2" stroke-dasharray="5,2" d="M2966.5,-473C2966.5,-473 2826.5,-473 2826.5,-473 2820.5,-473 2814.5,-467 2814.5,-461 2814.5,-461 2814.5,-449 2814.5,-449 2814.5,-443 2820.5,-437 2826.5,-437 2826.5,-437 2966.5,-437 2966.5,-437 2972.5,-437 2978.5,-443 2978.5,-449 2978.5,-449 2978.5,-461 2978.5,-461 2978.5,-467 2972.5,-473 2966.5,-473"/>
<text text-anchor="middle" x="2896.5" y="-458" font-family="sans" font-size="10.00">format_fastq_for_sam</text>
<text text-anchor="middle" x="2896.5" y="-447" font-family="sans" font-size="10.00">sample: ASC_D07G_P7_D9_hq</text>
</g>
<!-- 79&#45;&gt;68 -->
<g id="edge98" class="edge">
<title>79&#45;&gt;68</title>
<path fill="none" stroke="grey" stroke-width="2" d="M2896.5,-436.7C2896.5,-428.98 2896.5,-419.71 2896.5,-411.11"/>
<polygon fill="grey" stroke="grey" stroke-width="2" points="2900,-411.1 2896.5,-401.1 2893,-411.1 2900,-411.1"/>
</g>
<!-- 80 -->
<g id="node81" class="node">
<title>80</title>
<path fill="none" stroke="#d6d856" stroke-width="2" stroke-dasharray="5,2" d="M3369.5,-473C3369.5,-473 3209.5,-473 3209.5,-473 3203.5,-473 3197.5,-467 3197.5,-461 3197.5,-461 3197.5,-449 3197.5,-449 3197.5,-443 3203.5,-437 3209.5,-437 3209.5,-437 3369.5,-437 3369.5,-437 3375.5,-437 3381.5,-443 3381.5,-449 3381.5,-449 3381.5,-461 3381.5,-461 3381.5,-467 3375.5,-473 3369.5,-473"/>
<text text-anchor="middle" x="3289.5" y="-458" font-family="sans" font-size="10.00">format_fastq_for_sam</text>
<text text-anchor="middle" x="3289.5" y="-447" font-family="sans" font-size="10.00">sample: ASC_D07G_P7_PROLIF_hq</text>
</g>
<!-- 80&#45;&gt;70 -->
<g id="edge100" class="edge">
<title>80&#45;&gt;70</title>
<path fill="none" stroke="grey" stroke-width="2" d="M3289.5,-436.7C3289.5,-428.98 3289.5,-419.71 3289.5,-411.11"/>
<polygon fill="grey" stroke="grey" stroke-width="2" points="3293,-411.1 3289.5,-401.1 3286,-411.1 3293,-411.1"/>
</g>
</g>
</svg>
